<svg xmlns="http://www.w3.org/2000/svg" width="24" height="24" stroke-width="2" stroke="currentColor" fill="none" stroke-linecap="round" stroke-linejoin="round" style=""><rect id="backgroundrect" width="100%" height="100%" x="0" y="0" fill="none" stroke="none"/>
  
  
<g class="currentLayer" style=""><title>Layer 1</title><path stroke="none" d="M0 0h24v24H0z" fill="none" id="svg_1"/><path d="M7 11v8a1 1 0 0 1 -1 1h-2a1 1 0 0 1 -1 -1v-7a1 1 0 0 1 1 -1h3a4 4 0 0 0 4 -4v-1a2 2 0 0 1 4 0v5h3a2 2 0 0 1 2 2l-1 5a2 3 0 0 1 -2 2h-7a3 3 0 0 1 -3 -3" id="svg_2"/><polyline fill="#000000" stroke="#000000" stroke-dashoffset="" fill-rule="nonzero" marker-start="" marker-mid="" marker-end="" id="svg_3" points="11.673469387755098,11.102040816326525 11.673469387755098,11.183673469387752 11.673469387755098,11.265306122448973 11.673469387755098,11.3469387755102 11.673469387755098,11.428571428571427 11.673469387755098,11.510204081632645 11.673469387755098,11.591836734693874 11.755102040816327,11.673469387755095 11.836734693877546,11.836734693877549 11.918367346938773,11.91836734693877 11.918367346938773,11.999999999999995 11.999999999999993,11.999999999999995 11.999999999999993,12.081632653061218 11.999999999999993,12.163265306122444 12.08163265306122,12.163265306122444 12.163265306122447,12.163265306122444 12.244897959183666,12.163265306122444 12.326530612244895,12.163265306122444 12.326530612244895,12.081632653061218 12.326530612244895,11.999999999999995 12.326530612244895,11.755102040816322 12.326530612244895,11.591836734693874 12.326530612244895,11.265306122448973 12.326530612244895,11.020408163265307 12.326530612244895,10.693877551020403 12.244897959183666,10.530612244897958 12.163265306122447,10.367346938775508 12.08163265306122,10.285714285714281 12.08163265306122,10.204081632653054 11.999999999999993,10.040816326530607 11.999999999999993,9.959183673469386 11.918367346938773,9.959183673469386 11.918367346938773,9.87755102040816 11.836734693877546,9.87755102040816 11.755102040816327,10.040816326530607 11.59183673469387,10.285714285714281 11.428571428571423,10.530612244897958 11.346938775510203,10.693877551020403 11.265306122448974,10.85714285714285 11.265306122448974,10.938775510204078 11.183673469387749,10.938775510204078 11.183673469387749,11.020408163265307 11.102040816326529,11.102040816326525 11.102040816326529,11.183673469387752 11.020408163265301,11.183673469387752 11.020408163265301,11.102040816326525 11.020408163265301,11.020408163265307 11.020408163265301,10.938775510204078 11.020408163265301,10.85714285714285 11.102040816326529,10.693877551020403 11.102040816326529,10.612244897959176 11.102040816326529,10.530612244897958 11.102040816326529,10.285714285714281 11.102040816326529,10.204081632653054 11.102040816326529,10.122448979591834 11.102040816326529,10.040816326530607 11.102040816326529,9.959183673469386 11.102040816326529,9.87755102040816 11.102040816326529,9.795918367346932 11.102040816326529,9.714285714285712 11.102040816326529,9.632653061224485 11.102040816326529,9.551020408163264 11.102040816326529,9.469387755102037 11.183673469387749,9.469387755102037 11.183673469387749,9.38775510204081 11.265306122448974,9.38775510204081 11.265306122448974,9.30612244897959 11.265306122448974,9.224489795918362 11.346938775510203,9.224489795918362 11.346938775510203,9.142857142857135 11.346938775510203,9.061224489795915 11.428571428571423,9.061224489795915 11.51020408163265,8.979591836734688 11.51020408163265,8.897959183673464 11.59183673469387,8.897959183673464 11.59183673469387,8.81632653061224 11.59183673469387,8.734693877551017 11.673469387755098,8.734693877551017 11.673469387755098,8.653061224489793 11.673469387755098,8.571428571428566 11.755102040816327,8.489795918367342 11.755102040816327,8.408163265306118 11.836734693877546,8.326530612244895 11.836734693877546,8.244897959183671 11.836734693877546,8.163265306122444 11.918367346938773,8.163265306122444 11.918367346938773,7.9999999999999964 11.918367346938773,7.918367346938773 11.999999999999993,7.918367346938773 11.999999999999993,7.8367346938775455 11.999999999999993,7.755102040816322 11.999999999999993,7.673469387755098 12.08163265306122,7.591836734693874 12.163265306122447,7.510204081632647 12.163265306122447,7.3469387755102 12.163265306122447,7.265306122448976 12.244897959183666,7.265306122448976 12.244897959183666,7.183673469387752 12.244897959183666,7.0204081632653015 12.244897959183666,6.938775510204078 12.244897959183666,6.857142857142854 12.326530612244895,6.857142857142854 12.326530612244895,6.775510204081627 12.326530612244895,6.693877551020403 12.326530612244895,6.6122448979591795 12.326530612244895,6.530612244897956 12.326530612244895,6.448979591836732 12.326530612244895,6.367346938775505 12.326530612244895,6.285714285714281 12.326530612244895,6.2040816326530575 12.326530612244895,6.122448979591833 12.326530612244895,6.0408163265306065 12.326530612244895,5.959183673469383 12.326530612244895,5.877551020408158 12.408163265306122,5.714285714285712 12.408163265306122,5.551020408163261 12.408163265306122,5.469387755102037 12.489795918367342,5.469387755102037 12.489795918367342,5.387755102040814 12.489795918367342,5.306122448979586 12.57142857142857,5.306122448979586 12.57142857142857,5.2244897959183625 12.65306122448979,5.2244897959183625 12.734693877551015,5.2244897959183625 12.816326530612244,5.2244897959183625 12.897959183673464,5.2244897959183625 12.897959183673464,5.142857142857139 12.979591836734691,5.142857142857139 13.061224489795912,5.142857142857139 13.142857142857139,5.142857142857139 13.224489795918364,5.142857142857139 13.306122448979588,5.142857142857139 13.387755102040813,5.142857142857139 13.46938775510204,5.142857142857139 13.55102040816326,5.142857142857139 13.632653061224488,5.142857142857139 13.714285714285708,5.142857142857139 13.795918367346937,5.142857142857139 13.877551020408163,5.142857142857139 13.959183673469383,5.2244897959183625 13.959183673469383,5.306122448979586 14.04081632653061,5.387755102040814 14.04081632653061,5.551020408163261 14.04081632653061,5.632653061224484 14.12244897959183,5.714285714285712 14.12244897959183,5.795918367346935 14.204081632653057,5.877551020408158 14.204081632653057,5.959183673469383 14.204081632653057,6.0408163265306065 14.204081632653057,6.2040816326530575 14.204081632653057,6.285714285714281 14.204081632653057,6.448979591836732 14.204081632653057,6.530612244897956 14.204081632653057,6.6122448979591795 14.204081632653057,6.693877551020403 14.204081632653057,6.775510204081627 14.204081632653057,6.857142857142854 14.204081632653057,6.938775510204078 14.204081632653057,7.0204081632653015 14.204081632653057,7.102040816326525 14.204081632653057,7.183673469387752 14.204081632653057,7.265306122448976 14.204081632653057,7.3469387755102 14.204081632653057,7.4285714285714235 14.204081632653057,7.510204081632647 14.204081632653057,7.755102040816322 14.204081632653057,7.918367346938773 14.204081632653057,8.08163265306122 14.204081632653057,8.244897959183671 14.204081632653057,8.326530612244895 14.204081632653057,8.489795918367342 14.204081632653057,8.571428571428566 14.204081632653057,8.734693877551017 14.204081632653057,8.897959183673464 14.204081632653057,8.979591836734688 14.204081632653057,9.142857142857135 14.204081632653057,9.224489795918362 14.204081632653057,9.30612244897959 14.204081632653057,9.38775510204081 14.204081632653057,9.551020408163264 14.204081632653057,9.714285714285712 14.204081632653057,9.959183673469386 14.204081632653057,10.204081632653054 14.204081632653057,10.285714285714281 14.204081632653057,10.448979591836729 14.204081632653057,10.612244897959176 14.204081632653057,10.85714285714285 14.204081632653057,11.020408163265307 14.204081632653057,11.265306122448973 14.204081632653057,11.3469387755102 14.204081632653057,11.510204081632645 14.204081632653057,11.591836734693874 14.204081632653057,11.673469387755095 14.204081632653057,11.755102040816322 14.12244897959183,11.755102040816322 14.12244897959183,11.836734693877549 14.04081632653061,11.836734693877549 13.959183673469383,11.836734693877549 13.959183673469383,11.91836734693877 13.877551020408163,11.91836734693877 13.714285714285708,11.999999999999995 13.387755102040813,12.081632653061218 13.142857142857139,12.163265306122444 13.061224489795912,12.163265306122444 12.979591836734691,12.163265306122444 12.897959183673464,12.163265306122444 12.734693877551015,12.163265306122444 12.65306122448979,12.163265306122444 12.57142857142857,12.163265306122444 12.489795918367342,12.163265306122444 12.326530612244895,12.163265306122444 12.08163265306122,12.081632653061218 11.918367346938773,11.999999999999995 11.836734693877546,11.999999999999995 11.755102040816327,11.91836734693877 11.755102040816327,11.836734693877549 11.59183673469387,11.755102040816322 11.428571428571423,11.591836734693874 11.346938775510203,11.510204081632645 11.346938775510203,11.428571428571427 11.346938775510203,11.3469387755102 11.265306122448974,11.265306122448973 11.183673469387749,11.265306122448973 11.183673469387749,11.102040816326525 11.102040816326529,11.102040816326525 11.102040816326529,11.020408163265307 11.183673469387749,11.020408163265307 11.265306122448974,11.020408163265307 11.51020408163265,11.020408163265307 11.59183673469387,11.020408163265307 11.673469387755098,11.020408163265307 11.755102040816327,11.020408163265307 11.836734693877546,11.020408163265307 11.918367346938773,11.020408163265307 11.999999999999993,11.020408163265307 11.999999999999993,11.102040816326525 12.08163265306122,11.102040816326525 12.163265306122447,11.183673469387752 12.244897959183666,11.265306122448973 12.326530612244895,11.265306122448973 12.326530612244895,11.3469387755102 12.489795918367342,11.510204081632645 12.489795918367342,11.591836734693874 12.57142857142857,11.591836734693874 12.57142857142857,11.673469387755095 12.65306122448979,11.673469387755095 12.65306122448979,11.836734693877549 12.734693877551015,11.91836734693877 12.816326530612244,11.999999999999995 12.816326530612244,12.163265306122444 12.897959183673464,12.163265306122444 12.897959183673464,12.244897959183671 12.979591836734691,12.326530612244891 12.979591836734691,12.408163265306118 13.061224489795912,12.489795918367344 13.142857142857139,12.571428571428568 13.224489795918364,12.734693877551013 13.306122448979588,12.897959183673468 13.387755102040813,12.979591836734686 13.46938775510204,13.142857142857135 13.55102040816326,13.224489795918362 13.632653061224488,13.30612244897959 13.714285714285708,13.469387755102035 13.795918367346937,13.551020408163259 13.877551020408163,13.632653061224485 13.959183673469383,13.795918367346932 14.04081632653061,13.87755102040816 14.12244897959183,13.87755102040816 14.204081632653057,13.87755102040816 14.448979591836732,13.714285714285712 14.61224489795918,13.551020408163259 14.857142857142854,13.38775510204081 14.938775510204074,13.224489795918362 15.183673469387749,13.061224489795917 15.183673469387749,12.979591836734686 15.183673469387749,12.897959183673468 15.183673469387749,12.734693877551013 15.183673469387749,12.653061224489793 15.183673469387749,12.571428571428568 15.102040816326529,12.571428571428568 15.020408163265309,12.408163265306118 14.938775510204074,12.244897959183671 14.775510204081629,12.163265306122444 14.775510204081629,12.081632653061218 14.775510204081629,11.999999999999995 14.693877551020407,11.999999999999995 14.693877551020407,11.91836734693877 14.61224489795918,11.91836734693877 14.61224489795918,11.836734693877549 14.61224489795918,11.91836734693877 14.61224489795918,11.999999999999995 14.61224489795918,12.081632653061218 14.61224489795918,12.163265306122444 14.693877551020407,12.163265306122444 14.775510204081629,12.163265306122444 14.693877551020407,12.163265306122444 14.61224489795918,12.163265306122444 14.448979591836732,12.163265306122444 14.367346938775505,12.163265306122444 14.285714285714286,12.163265306122444 14.204081632653057,12.163265306122444 14.12244897959183,12.163265306122444 14.04081632653061,12.163265306122444 13.959183673469383,12.244897959183671 13.877551020408163,12.244897959183671 13.877551020408163,12.326530612244891 13.959183673469383,12.326530612244891 14.04081632653061,12.326530612244891 14.204081632653057,12.326530612244891 14.367346938775505,12.326530612244891 14.61224489795918,12.408163265306118 14.857142857142854,12.408163265306118 14.938775510204074,12.408163265306118 15.020408163265309,12.408163265306118 15.102040816326529,12.408163265306118 15.346938775510203,12.326530612244891 15.428571428571423,12.326530612244891 15.591836734693878,12.326530612244891 15.673469387755098,12.326530612244891 15.755102040816316,12.326530612244891 15.918367346938773,12.326530612244891 16.081632653061227,12.244897959183671 16.163265306122447,12.244897959183671 16.244897959183668,12.244897959183671 16.326530612244888,12.244897959183671 16.408163265306122,12.244897959183671 16.489795918367342,12.244897959183671 16.734693877551017,12.244897959183671 17.06122448979591,12.244897959183671 17.224489795918366,12.244897959183671 17.306122448979586,12.244897959183671 17.387755102040806,12.244897959183671 17.46938775510204,12.244897959183671 17.55102040816326,12.326530612244891 17.63265306122448,12.326530612244891 17.714285714285715,12.326530612244891 17.795918367346935,12.326530612244891 17.877551020408156,12.326530612244891 17.877551020408156,12.408163265306118 17.95918367346939,12.408163265306118 18.04081632653061,12.408163265306118 18.12244897959183,12.408163265306118 18.20408163265305,12.408163265306118 18.285714285714285,12.408163265306118 18.285714285714285,12.489795918367344 18.367346938775505,12.489795918367344 18.448979591836725,12.489795918367344 18.448979591836725,12.571428571428568 18.53061224489796,12.571428571428568 18.61224489795918,12.571428571428568 18.6938775510204,12.653061224489793 18.775510204081634,12.653061224489793 18.775510204081634,12.734693877551013 18.775510204081634,12.81632653061224 18.857142857142854,12.81632653061224 18.938775510204074,12.81632653061224 18.938775510204074,12.897959183673468 19.02040816326531,12.897959183673468 19.02040816326531,12.979591836734686 19.02040816326531,13.061224489795917 19.02040816326531,13.142857142857135 19.02040816326531,13.224489795918362 19.02040816326531,13.38775510204081 19.02040816326531,13.469387755102035 19.02040816326531,13.551020408163259 19.02040816326531,13.714285714285712 19.02040816326531,13.795918367346932 19.02040816326531,13.959183673469385 18.938775510204074,14.122448979591834 18.857142857142854,14.285714285714281 18.857142857142854,14.367346938775508 18.775510204081634,14.448979591836729 18.775510204081634,14.530612244897958 18.6938775510204,14.612244897959176 18.61224489795918,14.612244897959176 18.53061224489796,14.693877551020403 18.448979591836725,14.77551020408163 18.367346938775505,14.85714285714285 18.285714285714285,14.85714285714285 18.20408163265305,14.938775510204078 18.12244897959183,15.020408163265296 18.04081632653061,15.102040816326525 18.04081632653061,15.183673469387752 17.877551020408156,15.265306122448973 17.795918367346935,15.3469387755102 17.714285714285715,15.510204081632645 17.63265306122448,15.591836734693874 17.46938775510204,15.673469387755095 17.46938775510204,15.755102040816322 17.387755102040806,15.755102040816322 17.387755102040806,15.836734693877549 17.387755102040806,15.91836734693877 17.306122448979586,15.999999999999995 17.224489795918366,16.163265306122444 17.142857142857146,16.32653061224489 17.06122448979591,16.40816326530612 16.97959183673469,16.653061224489793 16.89795918367347,16.81632653061224 16.816326530612237,16.979591836734688 16.734693877551017,17.142857142857135 16.734693877551017,17.30612244897959 16.734693877551017,17.38775510204081 16.734693877551017,17.551020408163257 16.653061224489797,17.632653061224485 16.653061224489797,17.71428571428571 16.653061224489797,17.795918367346932 16.734693877551017,17.795918367346932 16.734693877551017,17.71428571428571 16.816326530612237,17.71428571428571 16.89795918367347,17.632653061224485 16.89795918367347,17.551020408163257 16.97959183673469,17.469387755102037 17.06122448979591,17.38775510204081 17.142857142857146,17.30612244897959 17.224489795918366,17.30612244897959 17.224489795918366,17.224489795918362 17.306122448979586,17.142857142857135 17.387755102040806,17.061224489795915 17.55102040816326,16.979591836734688 17.63265306122448,16.897959183673468 17.714285714285715,16.81632653061224 17.714285714285715,16.734693877551013 17.795918367346935,16.734693877551013 17.877551020408156,16.653061224489793 17.95918367346939,16.48979591836734 18.04081632653061,16.40816326530612 18.12244897959183,16.40816326530612 18.12244897959183,16.32653061224489 18.20408163265305,16.24489795918367 18.285714285714285,16.24489795918367 18.285714285714285,16.163265306122444 18.367346938775505,15.999999999999995 18.448979591836725,15.91836734693877 18.448979591836725,15.836734693877549 18.448979591836725,15.91836734693877 18.367346938775505,15.91836734693877 18.20408163265305,15.999999999999995 18.12244897959183,16.163265306122444 17.95918367346939,16.24489795918367 17.795918367346935,16.40816326530612 17.714285714285715,16.571428571428566 17.63265306122448,16.734693877551013 17.55102040816326,16.734693877551013 17.46938775510204,16.734693877551013 17.387755102040806,16.81632653061224 17.306122448979586,16.897959183673468 17.224489795918366,16.979591836734688 17.142857142857146,16.979591836734688 17.06122448979591,17.061224489795915 16.97959183673469,17.061224489795915 16.816326530612237,17.061224489795915 16.653061224489797,17.224489795918362 16.408163265306122,17.30612244897959 15.999999999999993,17.38775510204081 15.755102040816316,17.469387755102037 15.428571428571423,17.551020408163257 15.102040816326529,17.551020408163257 14.857142857142854,17.551020408163257 14.693877551020407,17.551020408163257 14.61224489795918,17.551020408163257 14.530612244897952,17.551020408163257 14.530612244897952,17.469387755102037 14.448979591836732,17.38775510204081 14.367346938775505,17.224489795918362 14.367346938775505,16.979591836734688 14.367346938775505,16.734693877551013 14.367346938775505,16.40816326530612 14.367346938775505,15.999999999999995 14.367346938775505,15.510204081632645 14.367346938775505,15.102040816326525 14.367346938775505,14.77551020408163 14.367346938775505,14.612244897959176 14.367346938775505,14.448979591836729 14.367346938775505,14.285714285714281 14.367346938775505,14.122448979591834 14.367346938775505,13.959183673469385 14.367346938775505,13.795918367346932 14.367346938775505,13.632653061224485 14.367346938775505,13.551020408163259 14.285714285714286,13.38775510204081 14.285714285714286,13.30612244897959 14.285714285714286,13.224489795918362 14.285714285714286,13.061224489795917 14.204081632653057,12.979591836734686 14.204081632653057,12.897959183673468 14.12244897959183,12.734693877551013 14.12244897959183,12.653061224489793 14.04081632653061,12.653061224489793 13.795918367346937,12.81632653061224 13.46938775510204,13.142857142857135 13.142857142857139,13.30612244897959 12.734693877551015,13.632653061224485 12.326530612244895,14.040816326530608 11.999999999999993,14.367346938775508 11.755102040816327,14.612244897959176 11.673469387755098,14.612244897959176 11.673469387755098,14.693877551020403 11.673469387755098,14.612244897959176 11.673469387755098,14.530612244897958 11.755102040816327,14.448979591836729 11.918367346938773,14.122448979591834 11.999999999999993,13.714285714285712 12.08163265306122,13.142857142857135 12.163265306122447,12.734693877551013 12.163265306122447,12.489795918367344 12.163265306122447,12.408163265306118 12.163265306122447,12.326530612244891 12.163265306122447,12.244897959183671 12.163265306122447,12.163265306122444 12.08163265306122,12.163265306122444 11.999999999999993,12.163265306122444 11.836734693877546,12.326530612244891 11.428571428571423,12.571428571428568 10.938775510204081,12.979591836734686 10.448979591836732,13.38775510204081 10.12244897959183,13.632653061224485 9.959183673469383,13.795918367346932 9.877551020408163,13.87755102040816 9.877551020408163,13.795918367346932 9.877551020408163,13.714285714285712 9.959183673469383,13.551020408163259 10.12244897959183,13.224489795918362 10.204081632653057,12.979591836734686 10.204081632653057,12.653061224489793 10.285714285714285,12.408163265306118 10.367346938775505,12.081632653061218 10.367346938775505,11.91836734693877 10.448979591836732,11.673469387755095 10.448979591836732,11.591836734693874 10.448979591836732,11.510204081632645 10.530612244897952,11.510204081632645 10.530612244897952,11.428571428571427 10.530612244897952,11.3469387755102 10.530612244897952,11.265306122448973 10.530612244897952,11.102040816326525 10.530612244897952,11.020408163265307 10.530612244897952,10.938775510204078 10.61224489795918,10.938775510204078 10.61224489795918,10.85714285714285 10.61224489795918,10.77551020408163 10.693877551020407,10.693877551020403 10.693877551020407,10.612244897959176 10.693877551020407,10.530612244897958 10.775510204081629,10.530612244897958 10.775510204081629,10.612244897959176 10.775510204081629,10.693877551020403 10.693877551020407,10.77551020408163 10.61224489795918,10.938775510204078 10.448979591836732,11.020408163265307 10.367346938775505,11.183673469387752 10.285714285714285,11.183673469387752 10.204081632653057,11.265306122448973 10.12244897959183,11.265306122448973 9.959183673469383,11.3469387755102 9.877551020408163,11.510204081632645 9.714285714285708,11.591836734693874 9.55102040816326,11.673469387755095 9.46938775510204,11.673469387755095 9.387755102040813,11.836734693877549 9.224489795918366,11.91836734693877 8.979591836734691,12.081632653061218 8.734693877551017,12.244897959183671 8.734693877551017,12.326530612244891 8.65306122448979,12.326530612244891 8.65306122448979,12.408163265306118 8.57142857142857,12.489795918367344 8.489795918367342,12.489795918367344 8.489795918367342,12.571428571428568 8.408163265306122,12.653061224489793 8.326530612244895,12.734693877551013 8.163265306122447,12.897959183673468 8,13.061224489795917 7.918367346938773,13.224489795918362 7.755102040816325,13.30612244897959 7.673469387755098,13.469387755102035 7.591836734693871,13.551020408163259 7.673469387755098,13.551020408163259 7.8367346938775455,13.469387755102035 8,13.30612244897959 8.163265306122447,13.061224489795917 8.244897959183668,12.897959183673468 8.244897959183668,12.81632653061224 8.326530612244895,12.653061224489793 8.326530612244895,12.489795918367344 8.326530612244895,12.326530612244891 8.408163265306122,12.081632653061218 8.489795918367342,11.91836734693877 8.489795918367342,11.673469387755095 8.57142857142857,11.591836734693874 8.57142857142857,11.428571428571427 8.65306122448979,11.428571428571427 8.65306122448979,11.3469387755102 8.734693877551017,11.3469387755102 8.816326530612244,11.3469387755102 8.979591836734691,11.428571428571427 9.306122448979586,11.591836734693874 9.795918367346935,11.673469387755095 10.12244897959183,11.836734693877549 10.204081632653057,11.91836734693877 10.285714285714285,11.91836734693877 10.367346938775505,11.999999999999995 10.530612244897952,12.163265306122444 10.530612244897952,12.244897959183671 10.530612244897952,12.408163265306118 10.448979591836732,12.571428571428568 10.285714285714285,12.734693877551013 9.959183673469383,12.897959183673468 9.714285714285708,13.142857142857135 9.55102040816326,13.224489795918362 9.387755102040813,13.38775510204081 9.224489795918366,13.469387755102035 8.979591836734691,13.551020408163259 8.897959183673464,13.632653061224485 8.897959183673464,13.714285714285712 8.816326530612244,13.714285714285712 8.734693877551017,13.714285714285712 8.65306122448979,13.795918367346932 8.65306122448979,13.87755102040816 8.57142857142857,13.959183673469385 8.408163265306122,14.040816326530608 8.326530612244895,14.122448979591834 8.326530612244895,14.204081632653054 8.244897959183668,14.285714285714281 8.08163265306122,14.448979591836729 8.08163265306122,14.612244897959176 8,14.693877551020403 8,14.612244897959176 8.08163265306122,14.448979591836729 8.244897959183668,14.204081632653054 8.489795918367342,13.795918367346932 8.734693877551017,13.38775510204081 8.897959183673464,12.979591836734686 8.979591836734691,12.734693877551013 9.142857142857139,12.489795918367344 9.142857142857139,12.408163265306118 9.224489795918366,12.326530612244891 9.224489795918366,12.244897959183671 9.306122448979586,12.244897959183671 9.46938775510204,12.081632653061218 9.55102040816326,11.999999999999995 9.632653061224488,11.999999999999995 9.714285714285708,11.999999999999995 9.795918367346935,11.999999999999995 9.877551020408163,11.999999999999995 10.12244897959183,11.999999999999995 10.204081632653057,11.999999999999995 10.367346938775505,11.999999999999995 10.448979591836732,11.999999999999995 10.448979591836732,12.081632653061218 10.448979591836732,12.163265306122444 10.448979591836732,12.326530612244891 10.367346938775505,12.571428571428568 10.12244897959183,12.81632653061224 9.877551020408163,13.061224489795917 9.714285714285708,13.30612244897959 9.632653061224488,13.469387755102035 9.46938775510204,13.632653061224485 9.306122448979586,13.795918367346932 9.224489795918366,13.959183673469385 9.061224489795912,14.122448979591834 9.061224489795912,14.204081632653054 8.979591836734691,14.285714285714281 8.897959183673464,14.448979591836729 8.816326530612244,14.612244897959176 8.734693877551017,14.85714285714285 8.57142857142857,15.020408163265296 8.489795918367342,15.183673469387752 8.408163265306122,15.265306122448973 8.408163265306122,15.428571428571427 8.244897959183668,15.591836734693874 8.244897959183668,15.755102040816322 8.08163265306122,15.91836734693877 8.08163265306122,15.999999999999995 8.08163265306122,16.081632653061217 8,16.081632653061217 8,16.163265306122444 8,16.24489795918367 8,16.32653061224489 8,16.40816326530612 8,16.571428571428566 8,16.653061224489793 8,16.81632653061224 8,16.897959183673468 8,16.979591836734688 8,17.061224489795915 8,17.142857142857135 8,17.224489795918362 8,17.30612244897959 8,17.38775510204081 8,17.469387755102037 8,17.551020408163257 8,17.632653061224485 8.08163265306122,17.632653061224485 8.163265306122447,17.71428571428571 8.244897959183668,17.795918367346932 8.489795918367342,17.95918367346938 8.65306122448979,18.040816326530607 8.816326530612244,18.204081632653054 8.897959183673464,18.28571428571428 8.979591836734691,18.28571428571428 8.979591836734691,18.36734693877551 9.142857142857139,18.44897959183673 9.224489795918366,18.44897959183673 9.224489795918366,18.530612244897956 9.306122448979586,18.530612244897956 9.387755102040813,18.530612244897956 9.46938775510204,18.530612244897956 9.55102040816326,18.530612244897956 9.632653061224488,18.530612244897956 9.714285714285708,18.530612244897956 9.795918367346935,18.530612244897956 10.04081632653061,18.36734693877551 10.285714285714285,18.204081632653054 10.693877551020407,17.95918367346938 10.938775510204081,17.71428571428571 11.265306122448974,17.469387755102037 11.59183673469387,17.142857142857135 11.673469387755098,17.061224489795915 11.755102040816327,16.979591836734688 11.836734693877546,16.81632653061224 11.918367346938773,16.734693877551013 11.999999999999993,16.40816326530612 12.163265306122447,16.24489795918367 12.244897959183666,15.91836734693877 12.244897959183666,15.591836734693874 12.326530612244895,15.3469387755102 12.326530612244895,15.020408163265296 12.326530612244895,14.77551020408163 12.326530612244895,14.612244897959176 12.326530612244895,14.367346938775508 12.326530612244895,14.285714285714281 12.244897959183666,13.959183673469385 12.163265306122447,13.714285714285712 12.08163265306122,13.469387755102035 11.999999999999993,13.30612244897959 11.918367346938773,13.142857142857135 11.755102040816327,12.897959183673468 11.755102040816327,12.81632653061224 11.673469387755098,12.734693877551013 11.673469387755098,12.653061224489793 11.59183673469387,12.653061224489793 11.59183673469387,12.571428571428568 11.51020408163265,12.571428571428568 11.346938775510203,12.571428571428568 11.265306122448974,12.489795918367344 11.183673469387749,12.489795918367344 11.102040816326529,12.408163265306118 10.938775510204081,12.408163265306118 10.857142857142854,12.326530612244891 10.775510204081629,12.326530612244891 10.775510204081629,12.244897959183671 10.775510204081629,12.163265306122444 10.775510204081629,12.081632653061218 10.775510204081629,11.999999999999995 10.857142857142854,11.999999999999995 10.938775510204081,11.999999999999995 11.020408163265301,11.999999999999995 11.346938775510203,11.999999999999995 11.836734693877546,12.081632653061218 12.244897959183666,12.244897959183671 12.57142857142857,12.326530612244891 12.734693877551015,12.489795918367344 12.897959183673464,12.571428571428568 12.897959183673464,12.653061224489793 13.061224489795912,12.653061224489793 13.224489795918364,12.81632653061224 13.306122448979588,12.81632653061224 13.306122448979588,12.897959183673468 13.387755102040813,12.979591836734686 13.387755102040813,13.061224489795917 13.387755102040813,13.224489795918362 13.46938775510204,13.30612244897959 13.46938775510204,13.38775510204081 13.55102040816326,13.469387755102035 13.55102040816326,13.551020408163259 13.632653061224488,13.714285714285712 13.632653061224488,13.87755102040816 13.714285714285708,14.040816326530608 13.795918367346937,14.204081632653054 13.877551020408163,14.448979591836729 13.959183673469383,14.612244897959176 14.04081632653061,14.85714285714285 14.04081632653061,15.020408163265296 14.12244897959183,15.183673469387752 14.204081632653057,15.3469387755102 14.204081632653057,15.510204081632645 14.285714285714286,15.673469387755095 14.285714285714286,15.755102040816322 14.285714285714286,15.836734693877549 14.285714285714286,15.91836734693877 14.285714285714286,15.999999999999995 14.285714285714286,16.081632653061217 14.285714285714286,16.163265306122444 14.285714285714286,16.24489795918367 14.285714285714286,16.32653061224489 14.12244897959183,16.48979591836734 14.12244897959183,16.571428571428566 14.04081632653061,16.653061224489793 13.959183673469383,16.653061224489793 13.795918367346937,16.734693877551013 13.632653061224488,16.81632653061224 13.46938775510204,16.897959183673468 13.46938775510204,16.979591836734688 13.387755102040813,16.979591836734688 13.306122448979588,16.979591836734688 13.224489795918364,17.061224489795915 13.142857142857139,17.061224489795915 12.979591836734691,17.142857142857135 12.897959183673464,17.224489795918362 12.816326530612244,17.224489795918362 12.734693877551015,17.224489795918362 12.65306122448979,17.224489795918362 12.57142857142857,17.30612244897959 12.65306122448979,17.30612244897959 12.816326530612244,17.30612244897959 13.142857142857139,17.38775510204081 13.55102040816326,17.38775510204081 13.959183673469383,17.38775510204081 14.12244897959183,17.38775510204081 14.367346938775505,17.38775510204081 14.775510204081629,17.38775510204081 15.183673469387749,17.38775510204081 15.673469387755098,17.30612244897959 15.999999999999993,17.30612244897959 16.244897959183668,17.30612244897959 16.326530612244888,17.30612244897959 16.408163265306122,17.30612244897959 16.571428571428562,17.30612244897959 16.653061224489797,17.30612244897959 16.734693877551017,17.30612244897959 16.89795918367347,17.30612244897959 16.97959183673469,17.30612244897959 17.06122448979591,17.30612244897959 17.142857142857146,17.30612244897959 17.306122448979586,17.38775510204081 17.387755102040806,17.38775510204081 17.55102040816326,17.38775510204081 17.63265306122448,17.469387755102037 17.714285714285715,17.469387755102037 17.877551020408156,17.469387755102037 17.95918367346939,17.469387755102037 18.04081632653061,17.469387755102037 18.12244897959183,17.469387755102037 18.12244897959183,17.551020408163257 18.20408163265305,17.551020408163257 18.285714285714285,17.551020408163257 18.285714285714285,17.632653061224485 18.367346938775505,17.632653061224485 18.367346938775505,17.71428571428571 18.367346938775505,17.795918367346932 18.367346938775505,17.87755102040816 18.367346938775505,17.95918367346938 18.367346938775505,18.122448979591834 18.285714285714285,18.204081632653054 18.20408163265305,18.28571428571428 18.12244897959183,18.28571428571428 18.12244897959183,18.36734693877551 18.04081632653061,18.36734693877551 17.95918367346939,18.44897959183673 17.95918367346939,18.530612244897956 17.877551020408156,18.530612244897956 17.795918367346935,18.530612244897956 17.714285714285715,18.530612244897956 17.63265306122448,18.530612244897956 17.63265306122448,18.612244897959176 17.55102040816326,18.612244897959176 17.46938775510204,18.612244897959176 17.387755102040806,18.612244897959176 17.306122448979586,18.612244897959176 17.224489795918366,18.612244897959176 17.142857142857146,18.612244897959176 17.06122448979591,18.612244897959176 16.97959183673469,18.612244897959176 16.97959183673469,18.530612244897956 16.97959183673469,18.36734693877551 16.97959183673469,18.122448979591834 16.97959183673469,17.795918367346932 16.97959183673469,17.551020408163257 17.06122448979591,17.30612244897959 17.224489795918366,16.979591836734688 17.224489795918366,16.734693877551013 17.306122448979586,16.48979591836734 17.306122448979586,16.32653061224489 17.387755102040806,16.163265306122444 17.387755102040806,16.081632653061217 17.387755102040806,15.999999999999995 17.387755102040806,15.91836734693877 17.387755102040806,15.755102040816322 17.387755102040806,15.673469387755095 17.46938775510204,15.673469387755095 17.46938775510204,15.591836734693874 17.46938775510204,15.510204081632645 17.55102040816326,15.428571428571427 17.63265306122448,15.3469387755102 17.63265306122448,15.265306122448973 17.714285714285715,15.183673469387752 17.877551020408156,15.102040816326525 17.95918367346939,15.020408163265296 17.95918367346939,14.938775510204078 18.04081632653061,14.938775510204078 18.12244897959183,14.938775510204078 18.20408163265305,14.938775510204078 18.285714285714285,14.938775510204078 18.367346938775505,14.938775510204078 18.367346938775505,15.020408163265296 18.367346938775505,15.183673469387752 18.367346938775505,15.3469387755102 18.367346938775505,15.510204081632645 18.367346938775505,15.673469387755095 18.367346938775505,15.836734693877549 18.367346938775505,15.91836734693877 18.367346938775505,15.999999999999995 18.367346938775505,16.163265306122444 18.367346938775505,16.32653061224489 18.285714285714285,16.40816326530612 18.285714285714285,16.571428571428566 18.20408163265305,16.571428571428566 18.20408163265305,16.653061224489793 18.20408163265305,16.734693877551013 18.20408163265305,16.81632653061224 18.12244897959183,16.81632653061224 18.12244897959183,16.897959183673468 18.12244897959183,16.979591836734688 18.04081632653061,17.061224489795915 17.877551020408156,17.30612244897959 17.795918367346935,17.469387755102037 17.714285714285715,17.551020408163257 17.63265306122448,17.632653061224485 17.63265306122448,17.71428571428571 17.55102040816326,17.71428571428571 17.46938775510204,17.795918367346932 17.46938775510204,17.87755102040816 17.46938775510204,17.95918367346938 17.387755102040806,18.040816326530607 17.387755102040806,18.122448979591834 17.306122448979586,18.204081632653054 17.306122448979586,18.28571428571428 17.224489795918366,18.28571428571428 17.142857142857146,18.36734693877551 17.142857142857146,18.44897959183673 17.06122448979591,18.530612244897956 16.97959183673469,18.530612244897956 16.97959183673469,18.612244897959176 16.89795918367347,18.693877551020403 16.816326530612237,18.693877551020403 16.816326530612237,18.77551020408163 16.734693877551017,18.77551020408163 16.653061224489797,18.77551020408163 16.653061224489797,18.85714285714285 16.571428571428562,18.938775510204078 16.489795918367342,18.938775510204078 16.408163265306122,18.938775510204078 16.326530612244888,18.938775510204078 16.244897959183668,18.938775510204078 16.163265306122447,18.938775510204078 16.163265306122447,19.020408163265298 16.081632653061227,19.020408163265298 15.999999999999993,19.020408163265298 15.836734693877553,19.020408163265298 15.673469387755098,19.020408163265298 15.591836734693878,19.020408163265298 15.510204081632644,19.020408163265298 15.428571428571423,19.102040816326525 15.346938775510203,19.102040816326525 15.265306122448967,19.102040816326525 15.102040816326529,19.102040816326525 14.775510204081629,19.102040816326525 14.61224489795918,19.183673469387752 14.448979591836732,19.265306122448973 14.367346938775505,19.265306122448973 14.285714285714286,19.265306122448973 14.12244897959183,19.265306122448973 14.04081632653061,19.265306122448973 13.959183673469383,19.265306122448973 13.877551020408163,19.265306122448973 13.714285714285708,19.183673469387752 13.632653061224488,19.183673469387752 13.387755102040813,19.183673469387752 13.142857142857139,19.102040816326525 13.061224489795912,19.102040816326525 12.979591836734691,19.102040816326525 12.897959183673464,19.102040816326525 12.816326530612244,19.102040816326525 12.734693877551015,19.102040816326525 12.65306122448979,19.102040816326525 12.57142857142857,19.102040816326525 12.408163265306122,19.102040816326525 12.244897959183666,19.102040816326525 12.08163265306122,19.102040816326525 11.918367346938773,19.020408163265298 11.836734693877546,19.020408163265298 11.673469387755098,19.020408163265298 11.51020408163265,19.020408163265298 11.265306122448974,19.020408163265298 10.938775510204081,19.020408163265298 10.693877551020407,19.020408163265298 10.61224489795918,19.020408163265298 10.530612244897952,19.020408163265298 10.448979591836732,19.020408163265298 10.367346938775505,19.020408163265298 10.285714285714285,19.020408163265298 10.04081632653061,19.020408163265298 9.877551020408163,19.020408163265298 9.714285714285708,19.020408163265298 9.632653061224488,19.020408163265298 9.714285714285708,19.020408163265298 9.795918367346935,19.020408163265298 9.795918367346935,18.938775510204078 9.795918367346935,18.85714285714285 9.795918367346935,18.77551020408163 9.877551020408163,18.77551020408163 9.877551020408163,18.693877551020403 9.959183673469383,18.530612244897956 9.959183673469383,18.28571428571428 10.12244897959183,18.040816326530607 10.204081632653057,17.795918367346932 10.285714285714285,17.469387755102037 10.530612244897952,17.142857142857135 10.775510204081629,16.81632653061224 10.938775510204081,16.653061224489793 11.183673469387749,16.32653061224489 11.346938775510203,16.081632653061217 11.51020408163265,15.91836734693877 11.59183673469387,15.755102040816322 11.673469387755098,15.673469387755095 11.673469387755098,15.591836734693874 11.673469387755098,15.510204081632645 11.673469387755098,15.428571428571427 11.673469387755098,15.3469387755102 11.673469387755098,15.265306122448973 11.673469387755098,15.183673469387752 11.673469387755098,15.020408163265296 11.673469387755098,14.77551020408163 11.673469387755098,14.448979591836729 11.755102040816327,14.285714285714281 11.836734693877546,14.204081632653054 11.836734693877546,14.122448979591834 11.836734693877546,14.204081632653054 11.918367346938773,14.204081632653054 11.918367346938773,14.285714285714281 11.918367346938773,14.612244897959176 11.918367346938773,14.85714285714285 11.918367346938773,15.102040816326525 11.918367346938773,15.428571428571427 11.755102040816327,15.673469387755095 11.673469387755098,15.91836734693877 11.59183673469387,15.999999999999995 11.59183673469387,16.081632653061217 11.59183673469387,15.999999999999995 11.836734693877546,15.836734693877549 11.999999999999993,15.673469387755095 12.244897959183666,15.3469387755102 12.65306122448979,14.938775510204078 13.061224489795912,14.612244897959176 13.224489795918364,14.448979591836729 13.142857142857139,14.448979591836729 12.979591836734691,14.612244897959176 12.734693877551015,14.77551020408163 12.57142857142857,14.938775510204078 12.57142857142857,15.020408163265296 12.489795918367342,15.020408163265296 12.57142857142857,15.020408163265296 12.734693877551015,15.102040816326525 12.979591836734691,15.102040816326525 13.061224489795912,15.102040816326525 13.061224489795912,15.183673469387752 13.061224489795912,15.265306122448973 13.061224489795912,15.3469387755102 12.897959183673464,15.591836734693874 12.897959183673464,15.673469387755095 12.816326530612244,15.673469387755095 12.734693877551015,15.673469387755095 12.65306122448979,15.673469387755095 12.57142857142857,15.673469387755095 12.408163265306122,15.673469387755095 12.326530612244895,15.673469387755095 12.244897959183666,15.673469387755095 12.244897959183666,15.591836734693874 12.08163265306122,15.591836734693874 11.999999999999993,15.591836734693874 11.999999999999993,15.673469387755095 11.999999999999993,15.755102040816322 11.999999999999993,15.836734693877549 11.999999999999993,15.91836734693877 11.999999999999993,15.999999999999995 11.999999999999993,16.081632653061217 11.999999999999993,16.24489795918367 11.918367346938773,16.32653061224489 11.836734693877546,16.32653061224489 11.755102040816327,16.32653061224489 11.755102040816327,16.40816326530612 11.673469387755098,16.40816326530612 11.59183673469387,16.571428571428566 11.346938775510203,16.653061224489793 11.020408163265301,16.734693877551013 10.775510204081629,16.81632653061224 10.530612244897952,16.897959183673468 10.367346938775505,16.979591836734688 10.204081632653057,17.061224489795915 9.959183673469383,17.142857142857135 9.877551020408163,17.224489795918362 9.795918367346935,17.224489795918362 9.714285714285708,17.224489795918362 9.632653061224488,17.224489795918362 9.55102040816326,17.224489795918362 9.306122448979586,17.30612244897959 8.897959183673464,17.469387755102037 8.489795918367342,17.551020408163257 8.326530612244895,17.551020408163257 8.244897959183668,17.551020408163257 8.244897959183668,17.632653061224485 8.163265306122447,17.632653061224485 8,17.632653061224485 7.673469387755098,17.71428571428571 7.591836734693871,17.71428571428571 7.510204081632651,17.71428571428571 7.4285714285714235,17.795918367346932 7.0204081632653015,17.87755102040816 6.6122448979591795,17.95918367346938 6.285714285714285,18.040816326530607 6.2040816326530575,18.040816326530607 6.12244897959183,18.040816326530607 6.04081632653061,18.122448979591834 6.04081632653061,18.204081632653054 5.959183673469383,18.204081632653054 5.877551020408164,18.204081632653054 5.632653061224487,18.36734693877551 5.551020408163261,18.36734693877551 5.551020408163261,18.44897959183673 5.632653061224487,18.44897959183673 5.632653061224487,18.530612244897956 5.714285714285708,18.530612244897956 5.795918367346935,18.612244897959176 5.877551020408164,18.612244897959176 5.877551020408164,18.693877551020403 5.959183673469383,18.693877551020403 6.04081632653061,18.693877551020403 6.12244897959183,18.693877551020403 6.04081632653061,18.693877551020403 5.959183673469383,18.693877551020403 5.877551020408164,18.693877551020403 5.795918367346935,18.693877551020403 5.714285714285708,18.77551020408163 5.632653061224487,18.77551020408163 5.551020408163261,18.77551020408163 5.469387755102041,18.77551020408163 5.306122448979586,18.77551020408163 5.224489795918366,18.77551020408163 5.142857142857139,18.77551020408163 5.061224489795919,18.77551020408163 4.979591836734691,18.77551020408163 4.897959183673464,18.77551020408163 4.816326530612244,18.77551020408163 4.734693877551017,18.77551020408163 4.6530612244897895,18.77551020408163 4.571428571428569,18.77551020408163 4.489795918367342,18.77551020408163 4.489795918367342,18.693877551020403 4.408163265306122,18.693877551020403 4.326530612244895,18.693877551020403 4.326530612244895,18.612244897959176 4.2448979591836675,18.612244897959176 4.2448979591836675,18.530612244897956 4.163265306122447,18.530612244897956 4.163265306122447,18.44897959183673 4.163265306122447,18.36734693877551 4.08163265306122,18.36734693877551 4.08163265306122,18.28571428571428 4.08163265306122,18.122448979591834 4.08163265306122,18.040816326530607 4.08163265306122,17.87755102040816 4.08163265306122,17.71428571428571 4.08163265306122,17.469387755102037 4.08163265306122,17.38775510204081 4.08163265306122,17.224489795918362 4.08163265306122,17.142857142857135 4.08163265306122,17.061224489795915 4.163265306122447,16.897959183673468 4.163265306122447,16.734693877551013 4.163265306122447,16.653061224489793 4.163265306122447,16.48979591836734 4.163265306122447,16.40816326530612 4.163265306122447,16.32653061224489 4.163265306122447,16.24489795918367 4.163265306122447,16.163265306122444 4.163265306122447,16.081632653061217 4.163265306122447,15.999999999999995 4.163265306122447,15.91836734693877 4.2448979591836675,15.755102040816322 4.2448979591836675,15.673469387755095 4.2448979591836675,15.591836734693874 4.2448979591836675,15.428571428571427 4.2448979591836675,15.3469387755102 4.2448979591836675,15.265306122448973 4.2448979591836675,15.183673469387752 4.2448979591836675,15.102040816326525 4.326530612244895,15.020408163265296 4.326530612244895,14.85714285714285 4.326530612244895,14.77551020408163 4.408163265306122,14.693877551020403 4.408163265306122,14.612244897959176 4.408163265306122,14.448979591836729 4.408163265306122,14.367346938775508 4.408163265306122,14.285714285714281 4.408163265306122,14.204081632653054 4.408163265306122,14.122448979591834 4.408163265306122,14.040816326530608 4.408163265306122,13.959183673469385 4.408163265306122,13.87755102040816 4.408163265306122,13.714285714285712 4.408163265306122,13.632653061224485 4.408163265306122,13.551020408163259 4.408163265306122,13.469387755102035 4.408163265306122,13.38775510204081 4.408163265306122,13.30612244897959 4.408163265306122,13.224489795918362 4.408163265306122,13.142857142857135 4.408163265306122,13.061224489795917 4.408163265306122,12.979591836734686 4.408163265306122,12.897959183673468 4.408163265306122,12.81632653061224 4.408163265306122,12.734693877551013 4.326530612244895,12.734693877551013 4.326530612244895,12.653061224489793 4.326530612244895,12.571428571428568 4.326530612244895,12.489795918367344 4.2448979591836675,12.408163265306118 4.2448979591836675,12.326530612244891 4.2448979591836675,12.244897959183671 4.2448979591836675,12.163265306122444 4.2448979591836675,12.081632653061218 4.2448979591836675,11.999999999999995 4.163265306122447,11.999999999999995 4.163265306122447,11.91836734693877 4.2448979591836675,11.91836734693877 4.326530612244895,11.91836734693877 4.408163265306122,11.91836734693877 4.571428571428569,11.91836734693877 4.734693877551017,11.91836734693877 4.816326530612244,11.91836734693877 4.979591836734691,11.91836734693877 5.061224489795919,11.91836734693877 5.142857142857139,11.91836734693877 5.224489795918366,11.91836734693877 5.306122448979586,11.91836734693877 5.387755102040814,11.91836734693877 5.469387755102041,11.91836734693877 5.551020408163261,11.91836734693877 5.551020408163261,11.999999999999995 5.632653061224487,11.999999999999995 5.714285714285708,11.999999999999995 5.795918367346935,11.999999999999995 5.877551020408164,11.999999999999995 5.959183673469383,11.999999999999995 6.12244897959183,11.999999999999995 6.2040816326530575,12.081632653061218 6.367346938775505,12.081632653061218 6.6122448979591795,12.163265306122444 7.0204081632653015,12.163265306122444 7.346938775510203,12.163265306122444 7.591836734693871,12.244897959183671 7.673469387755098,12.244897959183671 7.755102040816325,12.244897959183671 7.918367346938773,12.244897959183671 8,12.244897959183671 8.163265306122447,12.244897959183671 8.244897959183668,12.244897959183671 8.326530612244895,12.244897959183671 8.326530612244895,12.326530612244891 8.57142857142857,12.326530612244891 8.734693877551017,12.326530612244891 8.897959183673464,12.326530612244891 8.979591836734691,12.326530612244891 9.142857142857139,12.326530612244891 9.306122448979586,12.408163265306118 9.714285714285708,12.408163265306118 10.285714285714285,12.489795918367344 10.693877551020407,12.571428571428568 11.020408163265301,12.653061224489793 11.265306122448974,12.81632653061224 11.428571428571423,12.897959183673468 11.51020408163265,12.897959183673468 11.59183673469387,12.979591836734686 11.673469387755098,13.061224489795917 11.836734693877546,13.142857142857135 11.918367346938773,13.224489795918362 11.918367346938773,13.30612244897959 11.918367346938773,13.469387755102035 11.918367346938773,13.551020408163259 11.918367346938773,13.714285714285712 11.918367346938773,14.040816326530608 11.918367346938773,14.285714285714281 11.755102040816327,14.448979591836729 11.673469387755098,14.612244897959176 11.59183673469387,14.693877551020403 11.59183673469387,14.77551020408163 11.428571428571423,14.85714285714285 11.346938775510203,14.85714285714285 11.183673469387749,15.020408163265296 10.938775510204081,15.183673469387752 10.693877551020407,15.3469387755102 10.448979591836732,15.591836734693874 10.285714285714285,15.755102040816322 10.12244897959183,15.836734693877549 10.04081632653061,15.91836734693877 10.04081632653061,15.999999999999995 9.959183673469383,15.999999999999995 9.795918367346935,16.163265306122444 9.632653061224488,16.24489795918367 9.55102040816326,16.24489795918367 9.55102040816326,16.32653061224489 9.46938775510204,16.32653061224489 9.306122448979586,16.40816326530612 9.142857142857139,16.48979591836734 8.979591836734691,16.653061224489793 8.897959183673464,16.734693877551013 8.816326530612244,16.734693877551013 8.734693877551017,16.734693877551013 8.65306122448979,16.734693877551013 8.57142857142857,16.734693877551013 8.408163265306122,16.734693877551013 8.244897959183668,16.734693877551013 7.918367346938773,16.734693877551013 7.673469387755098,16.734693877551013 7.346938775510203,16.653061224489793 7.102040816326529,16.48979591836734 6.938775510204081,16.48979591836734 6.857142857142854,16.48979591836734 6.857142857142854,16.571428571428566 6.857142857142854,16.653061224489793 6.857142857142854,16.897959183673468 6.938775510204081,17.061224489795915 7.183673469387749,17.30612244897959 7.4285714285714235,17.38775510204081 7.591836734693871,17.551020408163257 7.8367346938775455,17.632653061224485 8.244897959183668,17.71428571428571 8.897959183673464,17.71428571428571 9.55102040816326,17.795918367346932 10.12244897959183,17.87755102040816 10.367346938775505,17.87755102040816 10.61224489795918,17.795918367346932 10.938775510204081,17.71428571428571 11.346938775510203,17.551020408163257 11.59183673469387,17.38775510204081 11.59183673469387,17.30612244897959 11.673469387755098,17.30612244897959 11.673469387755098,17.224489795918362 11.673469387755098,17.142857142857135 11.673469387755098,17.061224489795915 11.673469387755098,16.979591836734688 11.673469387755098,16.897959183673468 11.59183673469387,16.897959183673468 11.51020408163265,16.897959183673468 11.51020408163265,16.81632653061224 11.265306122448974,16.81632653061224 10.938775510204081,16.734693877551013 10.693877551020407,16.653061224489793 10.448979591836732,16.571428571428566 10.285714285714285,16.48979591836734 9.959183673469383,16.32653061224489 9.306122448979586,16.081632653061217 8.65306122448979,15.755102040816322 8,15.510204081632645 7.4285714285714235,15.265306122448973 7.0204081632653015,15.102040816326525 6.693877551020407,14.938775510204078 6.6122448979591795,14.938775510204078 6.530612244897959,14.938775510204078 6.530612244897959,14.85714285714285 6.6122448979591795,14.85714285714285 6.693877551020407,14.85714285714285 6.775510204081627,14.85714285714285 7.0204081632653015,15.020408163265296 7.265306122448976,15.183673469387752 7.510204081632651,15.3469387755102 7.8367346938775455,15.591836734693874 8.163265306122447,15.836734693877549 8.489795918367342,15.999999999999995 8.979591836734691,16.24489795918367 9.55102040816326,16.40816326530612 9.959183673469383,16.48979591836734 10.204081632653057,16.48979591836734 10.204081632653057,16.571428571428566 10.285714285714285,16.571428571428566 10.367346938775505,16.571428571428566 10.448979591836732,16.571428571428566 10.530612244897952,16.571428571428566 10.693877551020407,16.48979591836734 11.183673469387749,16.40816326530612 11.265306122448974,16.32653061224489 11.346938775510203,16.32653061224489 11.346938775510203,16.24489795918367 11.428571428571423,16.24489795918367 11.51020408163265,16.163265306122444 11.755102040816327,15.999999999999995 11.918367346938773,15.91836734693877 12.163265306122447,15.755102040816322 12.326530612244895,15.673469387755095 12.408163265306122,15.673469387755095 12.57142857142857,15.836734693877549 12.65306122448979,16.081632653061217 12.65306122448979,16.40816326530612 12.734693877551015,16.734693877551013 12.734693877551015,17.142857142857135 12.734693877551015,17.38775510204081 12.734693877551015,17.551020408163257 12.65306122448979,17.551020408163257 12.489795918367342,17.551020408163257 12.408163265306122,17.551020408163257 12.163265306122447,17.551020408163257 11.755102040816327,17.551020408163257 11.102040816326529,17.38775510204081 10.367346938775505,17.142857142857135 9.632653061224488,16.734693877551013 9.061224489795912,16.48979591836734 8.734693877551017,16.24489795918367 8.408163265306122,16.081632653061217 8.244897959183668,15.999999999999995 8.08163265306122,15.91836734693877 8.08163265306122,15.836734693877549 8,15.836734693877549 8,15.755102040816322 8,15.591836734693874 8,15.428571428571427 8,15.3469387755102 8.08163265306122,15.3469387755102 8.08163265306122,15.265306122448973 8.163265306122447,15.265306122448973 8.244897959183668,15.265306122448973 " style="color: rgb(0, 0, 0);"/></g></svg>