<svg xmlns="http://www.w3.org/2000/svg" width="24" height="24" stroke-width="2" stroke="currentColor" fill="none" stroke-linecap="round" stroke-linejoin="round"><rect id="backgroundrect" width="100%" height="100%" x="0" y="0" fill="none" stroke="none"/>
  
  
<g class="currentLayer" style=""><title>Layer 1</title><path stroke="none" d="M0 0h24v24H0z" fill="none" id="svg_1"/><path d="M7 13v-8a1 1 0 0 0 -1 -1h-2a1 1 0 0 0 -1 1v7a1 1 0 0 0 1 1h3a4 4 0 0 1 4 4v1a2 2 0 0 0 4 0v-5h3a2 2 0 0 0 2 -2l-1 -5a2 3 0 0 0 -2 -2h-7a3 3 0 0 0 -3 3" id="svg_2"/><polyline fill="none" stroke="#000000" stroke-dashoffset="" fill-rule="nonzero" marker-start="" marker-mid="" marker-end="" id="svg_3" points="11.999999999999993,8.897959183673464 11.999999999999993,8.81632653061224 12.244897959183666,8.81632653061224 12.57142857142857,8.734693877551017 12.979591836734691,8.653061224489793 13.306122448979588,8.489795918367342 13.55102040816326,8.408163265306118 13.795918367346937,8.163265306122444 13.959183673469383,7.918367346938773 14.04081632653061,7.8367346938775455 14.04081632653061,7.755102040816322 14.12244897959183,7.755102040816322 14.12244897959183,7.591836734693874 14.12244897959183,7.4285714285714235 14.12244897959183,7.265306122448976 14.12244897959183,6.938775510204078 13.877551020408163,6.6122448979591795 13.632653061224488,6.367346938775505 13.306122448979588,6.0408163265306065 12.979591836734691,5.795918367346935 12.65306122448979,5.551020408163261 12.326530612244895,5.387755102040814 11.918367346938773,5.142857142857139 11.59183673469387,5.061224489795915 11.428571428571423,4.897959183673464 11.346938775510203,4.897959183673464 11.265306122448974,4.897959183673464 11.265306122448974,4.979591836734691 11.183673469387749,4.979591836734691 11.102040816326529,5.142857142857139 11.020408163265301,5.469387755102037 10.938775510204081,5.795918367346935 10.938775510204081,5.959183673469383 10.938775510204081,6.2040816326530575 10.938775510204081,6.367346938775505 10.938775510204081,6.6122448979591795 10.938775510204081,6.775510204081627 10.938775510204081,6.857142857142854 10.938775510204081,7.0204081632653015 11.020408163265301,7.102040816326525 11.020408163265301,7.265306122448976 11.102040816326529,7.265306122448976 11.183673469387749,7.3469387755102 11.346938775510203,7.4285714285714235 11.59183673469387,7.4285714285714235 11.918367346938773,7.510204081632647 12.163265306122447,7.510204081632647 12.408163265306122,7.510204081632647 12.57142857142857,7.510204081632647 12.734693877551015,7.510204081632647 12.897959183673464,7.510204081632647 13.061224489795912,7.510204081632647 13.224489795918364,7.510204081632647 13.306122448979588,7.4285714285714235 13.387755102040813,7.4285714285714235 13.387755102040813,7.3469387755102 13.387755102040813,7.183673469387752 13.387755102040813,7.0204081632653015 13.387755102040813,6.857142857142854 13.306122448979588,6.693877551020403 13.224489795918364,6.530612244897956 12.979591836734691,6.367346938775505 12.734693877551015,6.122448979591833 12.489795918367342,6.0408163265306065 12.326530612244895,5.877551020408158 12.163265306122447,5.877551020408158 12.08163265306122,5.877551020408158 11.918367346938773,5.877551020408158 11.836734693877546,5.959183673469383 11.673469387755098,6.0408163265306065 11.51020408163265,6.285714285714281 11.346938775510203,6.6122448979591795 11.265306122448974,6.693877551020403 11.265306122448974,6.775510204081627 11.183673469387749,6.857142857142854 11.183673469387749,6.938775510204078 11.265306122448974,6.938775510204078 11.346938775510203,6.938775510204078 11.51020408163265,6.857142857142854 11.673469387755098,6.775510204081627 11.755102040816327,6.775510204081627 11.918367346938773,6.693877551020403 12.08163265306122,6.693877551020403 12.489795918367342,6.693877551020403 12.816326530612244,6.6122448979591795 13.061224489795912,6.6122448979591795 13.387755102040813,6.6122448979591795 13.632653061224488,6.6122448979591795 13.795918367346937,6.6122448979591795 13.959183673469383,6.6122448979591795 14.04081632653061,6.6122448979591795 13.959183673469383,6.6122448979591795 13.877551020408163,6.6122448979591795 13.877551020408163,6.693877551020403 13.632653061224488,6.775510204081627 13.46938775510204,6.938775510204078 13.224489795918364,7.0204081632653015 12.897959183673464,7.183673469387752 12.65306122448979,7.265306122448976 12.489795918367342,7.265306122448976 12.489795918367342,7.183673469387752 12.489795918367342,7.102040816326525 12.489795918367342,6.857142857142854 12.489795918367342,6.530612244897956 12.489795918367342,6.122448979591833 12.57142857142857,5.714285714285712 12.65306122448979,5.387755102040814 12.734693877551015,5.142857142857139 12.734693877551015,4.897959183673464 12.734693877551015,4.8163265306122405 12.816326530612244,4.8163265306122405 12.816326530612244,4.734693877551017 12.897959183673464,4.734693877551017 12.979591836734691,4.734693877551017 13.061224489795912,4.734693877551017 13.142857142857139,4.734693877551017 13.387755102040813,4.734693877551017 13.55102040816326,4.734693877551017 13.795918367346937,4.734693877551017 13.877551020408163,4.734693877551017 14.04081632653061,4.734693877551017 14.204081632653057,4.734693877551017 14.367346938775505,4.734693877551017 14.448979591836732,4.734693877551017 14.693877551020407,4.734693877551017 14.857142857142854,4.734693877551017 14.938775510204074,4.8163265306122405 15.020408163265309,4.8163265306122405 15.102040816326529,4.8163265306122405 15.102040816326529,4.897959183673464 15.183673469387749,4.979591836734691 15.183673469387749,5.061224489795915 15.265306122448967,5.061224489795915 15.265306122448967,5.142857142857139 15.265306122448967,5.2244897959183625 15.265306122448967,5.306122448979586 15.265306122448967,5.469387755102037 15.183673469387749,5.714285714285712 15.020408163265309,5.959183673469383 14.857142857142854,6.122448979591833 14.61224489795918,6.285714285714281 14.367346938775505,6.448979591836732 14.204081632653057,6.448979591836732 14.12244897959183,6.530612244897956 14.04081632653061,6.530612244897956 13.959183673469383,6.530612244897956 13.877551020408163,6.530612244897956 13.795918367346937,6.530612244897956 13.714285714285708,6.530612244897956 13.632653061224488,6.448979591836732 13.46938775510204,6.367346938775505 13.224489795918364,6.2040816326530575 13.142857142857139,6.122448979591833 13.061224489795912,6.0408163265306065 13.061224489795912,5.959183673469383 13.061224489795912,5.877551020408158 13.142857142857139,5.877551020408158 13.224489795918364,5.877551020408158 13.46938775510204,5.795918367346935 13.877551020408163,5.714285714285712 14.12244897959183,5.632653061224484 14.367346938775505,5.632653061224484 14.448979591836732,5.551020408163261 14.530612244897952,5.551020408163261 14.693877551020407,5.551020408163261 14.775510204081629,5.551020408163261 14.857142857142854,5.551020408163261 14.857142857142854,5.469387755102037 14.775510204081629,5.469387755102037 14.693877551020407,5.469387755102037 14.530612244897952,5.469387755102037 14.367346938775505,5.469387755102037 14.12244897959183,5.469387755102037 13.795918367346937,5.469387755102037 13.306122448979588,5.469387755102037 12.979591836734691,5.469387755102037 12.816326530612244,5.469387755102037 12.734693877551015,5.469387755102037 12.65306122448979,5.469387755102037 12.734693877551015,5.469387755102037 12.816326530612244,5.469387755102037 12.897959183673464,5.469387755102037 13.224489795918364,5.387755102040814 13.55102040816326,5.387755102040814 13.714285714285708,5.306122448979586 13.795918367346937,5.2244897959183625 13.959183673469383,5.2244897959183625 14.12244897959183,5.142857142857139 14.367346938775505,5.142857142857139 14.61224489795918,5.142857142857139 14.775510204081629,5.142857142857139 14.938775510204074,5.061224489795915 15.102040816326529,5.061224489795915 15.265306122448967,5.061224489795915 15.428571428571423,5.061224489795915 15.673469387755098,5.061224489795915 15.836734693877553,5.061224489795915 15.918367346938773,5.061224489795915 16.081632653061227,5.061224489795915 16.163265306122447,5.061224489795915 16.244897959183668,5.061224489795915 16.408163265306122,5.061224489795915 16.489795918367342,5.061224489795915 16.571428571428562,5.061224489795915 16.653061224489797,5.061224489795915 16.734693877551017,5.061224489795915 16.816326530612237,5.061224489795915 16.89795918367347,5.061224489795915 16.97959183673469,5.061224489795915 17.06122448979591,5.061224489795915 17.142857142857146,5.061224489795915 17.224489795918366,5.061224489795915 17.306122448979586,5.061224489795915 17.387755102040806,5.061224489795915 17.46938775510204,5.061224489795915 17.46938775510204,5.142857142857139 17.55102040816326,5.142857142857139 17.63265306122448,5.2244897959183625 17.714285714285715,5.306122448979586 17.795918367346935,5.387755102040814 17.795918367346935,5.469387755102037 17.877551020408156,5.469387755102037 17.877551020408156,5.632653061224484 17.95918367346939,5.795918367346935 17.95918367346939,5.959183673469383 17.95918367346939,6.0408163265306065 18.04081632653061,6.2040816326530575 18.12244897959183,6.285714285714281 18.12244897959183,6.448979591836732 18.12244897959183,6.530612244897956 18.12244897959183,6.6122448979591795 18.12244897959183,6.693877551020403 18.12244897959183,6.857142857142854 18.12244897959183,6.938775510204078 18.12244897959183,7.102040816326525 18.12244897959183,7.183673469387752 18.12244897959183,7.265306122448976 18.12244897959183,7.4285714285714235 18.12244897959183,7.510204081632647 18.12244897959183,7.673469387755098 18.12244897959183,7.8367346938775455 18.12244897959183,7.9999999999999964 18.12244897959183,8.163265306122444 18.12244897959183,8.408163265306118 18.12244897959183,8.489795918367342 18.12244897959183,8.653061224489793 18.12244897959183,8.734693877551017 18.12244897959183,8.81632653061224 18.12244897959183,8.897959183673464 18.12244897959183,8.979591836734688 18.12244897959183,9.142857142857135 18.12244897959183,9.30612244897959 18.12244897959183,9.38775510204081 18.12244897959183,9.551020408163264 18.12244897959183,9.714285714285712 18.12244897959183,9.795918367346932 18.12244897959183,9.87755102040816 18.20408163265305,10.122448979591834 18.285714285714285,10.204081632653054 18.285714285714285,10.448979591836729 18.367346938775505,10.612244897959176 18.367346938775505,10.77551020408163 18.448979591836725,10.77551020408163 18.448979591836725,10.85714285714285 18.448979591836725,10.938775510204078 18.448979591836725,11.020408163265307 18.448979591836725,11.102040816326525 18.53061224489796,11.102040816326525 18.53061224489796,11.020408163265307 18.61224489795918,10.938775510204078 18.61224489795918,10.612244897959176 18.61224489795918,10.285714285714281 18.61224489795918,9.959183673469386 18.61224489795918,9.714285714285712 18.61224489795918,9.551020408163264 18.61224489795918,9.469387755102037 18.61224489795918,9.38775510204081 18.61224489795918,9.30612244897959 18.61224489795918,9.224489795918362 18.61224489795918,9.142857142857135 18.61224489795918,9.224489795918362 18.61224489795918,9.38775510204081 18.6938775510204,9.714285714285712 18.775510204081634,9.87755102040816 18.775510204081634,10.040816326530607 18.775510204081634,10.122448979591834 18.775510204081634,10.204081632653054 18.775510204081634,10.367346938775508 18.775510204081634,10.448979591836729 18.775510204081634,10.530612244897958 18.775510204081634,10.612244897959176 18.775510204081634,10.85714285714285 18.775510204081634,11.020408163265307 18.775510204081634,11.102040816326525 18.6938775510204,11.102040816326525 18.61224489795918,11.102040816326525 18.61224489795918,11.183673469387752 18.53061224489796,11.183673469387752 18.367346938775505,11.183673469387752 18.285714285714285,11.3469387755102 18.20408163265305,11.3469387755102 18.04081632653061,11.428571428571427 17.95918367346939,11.428571428571427 17.877551020408156,11.428571428571427 17.795918367346935,11.428571428571427 17.714285714285715,11.428571428571427 17.63265306122448,11.510204081632645 17.55102040816326,11.510204081632645 17.46938775510204,11.510204081632645 17.306122448979586,11.510204081632645 17.224489795918366,11.510204081632645 17.142857142857146,11.510204081632645 17.06122448979591,11.510204081632645 16.97959183673469,11.510204081632645 16.89795918367347,11.510204081632645 16.653061224489797,11.510204081632645 16.571428571428562,11.510204081632645 16.489795918367342,11.510204081632645 16.326530612244888,11.510204081632645 16.244897959183668,11.510204081632645 16.163265306122447,11.591836734693874 15.999999999999993,11.591836734693874 15.999999999999993,11.673469387755095 15.918367346938773,11.673469387755095 15.836734693877553,11.673469387755095 15.836734693877553,11.755102040816322 15.918367346938773,11.755102040816322 15.999999999999993,11.755102040816322 16.081632653061227,11.755102040816322 16.163265306122447,11.755102040816322 16.244897959183668,11.755102040816322 16.408163265306122,11.755102040816322 16.489795918367342,11.755102040816322 16.571428571428562,11.755102040816322 16.653061224489797,11.755102040816322 16.816326530612237,11.755102040816322 17.142857142857146,11.755102040816322 17.387755102040806,11.755102040816322 17.46938775510204,11.755102040816322 17.55102040816326,11.755102040816322 17.63265306122448,11.755102040816322 17.714285714285715,11.755102040816322 17.795918367346935,11.755102040816322 17.877551020408156,11.755102040816322 17.95918367346939,11.755102040816322 18.04081632653061,11.755102040816322 18.12244897959183,11.755102040816322 18.12244897959183,11.673469387755095 18.20408163265305,11.673469387755095 18.285714285714285,11.591836734693874 18.367346938775505,11.591836734693874 18.367346938775505,11.510204081632645 17.95918367346939,11.428571428571427 17.63265306122448,11.183673469387752 17.224489795918366,10.938775510204078 16.97959183673469,10.530612244897958 16.89795918367347,10.204081632653054 16.89795918367347,9.795918367346932 16.89795918367347,9.551020408163264 16.89795918367347,9.38775510204081 16.89795918367347,9.142857142857135 16.89795918367347,8.897959183673464 16.89795918367347,8.571428571428566 16.89795918367347,8.244897959183671 16.89795918367347,7.9999999999999964 16.89795918367347,7.8367346938775455 16.89795918367347,7.673469387755098 16.89795918367347,7.591836734693874 16.89795918367347,7.510204081632647 16.89795918367347,7.4285714285714235 16.89795918367347,7.3469387755102 16.89795918367347,7.265306122448976 16.816326530612237,7.102040816326525 16.816326530612237,7.0204081632653015 16.816326530612237,6.938775510204078 16.816326530612237,6.775510204081627 16.816326530612237,6.6122448979591795 16.89795918367347,6.285714285714281 16.97959183673469,6.0408163265306065 17.06122448979591,5.795918367346935 17.06122448979591,5.714285714285712 17.06122448979591,5.551020408163261 17.142857142857146,5.551020408163261 17.224489795918366,5.551020408163261 17.224489795918366,5.632653061224484 17.387755102040806,5.714285714285712 17.46938775510204,5.959183673469383 17.63265306122448,6.285714285714281 17.714285714285715,6.6122448979591795 17.795918367346935,6.938775510204078 17.795918367346935,7.4285714285714235 17.795918367346935,7.8367346938775455 17.795918367346935,8.244897959183671 17.795918367346935,8.489795918367342 17.714285714285715,8.81632653061224 17.714285714285715,9.142857142857135 17.714285714285715,9.38775510204081 17.63265306122448,9.469387755102037 17.63265306122448,9.632653061224485 17.63265306122448,9.795918367346932 17.63265306122448,10.040816326530607 17.55102040816326,10.204081632653054 17.46938775510204,10.530612244897958 17.46938775510204,10.693877551020403 17.46938775510204,10.85714285714285 17.387755102040806,11.020408163265307 17.306122448979586,11.102040816326525 17.306122448979586,11.183673469387752 17.306122448979586,11.102040816326525 17.387755102040806,11.102040816326525 17.46938775510204,10.85714285714285 17.55102040816326,10.693877551020403 17.63265306122448,10.448979591836729 17.714285714285715,10.122448979591834 17.877551020408156,9.714285714285712 17.95918367346939,9.224489795918362 17.95918367346939,8.979591836734688 17.95918367346939,8.734693877551017 17.95918367346939,8.489795918367342 17.95918367346939,8.244897959183671 17.95918367346939,8.08163265306122 17.95918367346939,7.8367346938775455 17.795918367346935,7.510204081632647 17.63265306122448,7.183673469387752 17.55102040816326,6.857142857142854 17.387755102040806,6.530612244897956 17.306122448979586,6.2040816326530575 17.224489795918366,5.959183673469383 17.224489795918366,5.795918367346935 17.224489795918366,5.714285714285712 17.142857142857146,5.632653061224484 17.142857142857146,5.551020408163261 17.06122448979591,5.551020408163261 16.97959183673469,5.551020408163261 16.89795918367347,5.551020408163261 16.816326530612237,5.551020408163261 16.734693877551017,5.551020408163261 16.571428571428562,5.551020408163261 16.326530612244888,5.551020408163261 16.081632653061227,5.632653061224484 15.836734693877553,5.632653061224484 15.755102040816316,5.632653061224484 15.673469387755098,5.632653061224484 15.591836734693878,5.632653061224484 15.591836734693878,5.714285714285712 15.510204081632644,5.795918367346935 15.510204081632644,5.877551020408158 15.346938775510203,5.959183673469383 15.265306122448967,6.2040816326530575 15.102040816326529,6.530612244897956 15.020408163265309,6.857142857142854 14.938775510204074,7.183673469387752 14.938775510204074,7.3469387755102 14.938775510204074,7.4285714285714235 15.020408163265309,7.4285714285714235 15.102040816326529,7.4285714285714235 15.183673469387749,7.4285714285714235 15.265306122448967,7.4285714285714235 15.428571428571423,7.3469387755102 15.591836734693878,7.102040816326525 15.836734693877553,6.857142857142854 15.918367346938773,6.693877551020403 16.081632653061227,6.448979591836732 16.163265306122447,6.367346938775505 16.163265306122447,6.2040816326530575 16.244897959183668,6.2040816326530575 16.244897959183668,6.122448979591833 16.326530612244888,6.122448979591833 16.408163265306122,6.122448979591833 16.489795918367342,6.122448979591833 16.489795918367342,6.0408163265306065 16.653061224489797,6.0408163265306065 16.816326530612237,5.877551020408158 16.816326530612237,5.959183673469383 16.653061224489797,6.122448979591833 16.571428571428562,6.367346938775505 16.489795918367342,6.693877551020403 16.408163265306122,7.0204081632653015 16.326530612244888,7.3469387755102 16.326530612244888,7.673469387755098 16.326530612244888,7.9999999999999964 16.408163265306122,8.326530612244895 16.489795918367342,8.653061224489793 16.571428571428562,8.979591836734688 16.734693877551017,9.142857142857135 16.734693877551017,9.30612244897959 16.816326530612237,9.38775510204081 16.89795918367347,9.469387755102037 16.97959183673469,9.632653061224485 17.06122448979591,9.795918367346932 17.142857142857146,9.959183673469386 17.142857142857146,10.204081632653054 17.224489795918366,10.448979591836729 17.224489795918366,10.77551020408163 17.224489795918366,11.020408163265307 17.224489795918366,11.183673469387752 17.142857142857146,11.183673469387752 17.06122448979591,11.183673469387752 16.89795918367347,11.102040816326525 16.816326530612237,10.938775510204078 16.653061224489797,10.693877551020403 16.489795918367342,10.448979591836729 16.326530612244888,10.204081632653054 16.244897959183668,9.959183673469386 16.163265306122447,9.714285714285712 15.999999999999993,9.30612244897959 15.918367346938773,8.897959183673464 15.918367346938773,8.489795918367342 15.918367346938773,8.08163265306122 15.918367346938773,7.510204081632647 15.918367346938773,7.0204081632653015 15.918367346938773,6.6122448979591795 15.918367346938773,6.448979591836732 15.918367346938773,6.367346938775505 15.918367346938773,6.448979591836732 15.918367346938773,6.693877551020403 15.918367346938773,7.183673469387752 16.081632653061227,7.8367346938775455 16.081632653061227,8.571428571428566 16.163265306122447,9.224489795918362 16.163265306122447,9.795918367346932 16.244897959183668,10.285714285714281 16.244897959183668,10.530612244897958 16.244897959183668,10.612244897959176 16.244897959183668,10.693877551020403 16.244897959183668,10.77551020408163 16.244897959183668,10.938775510204078 16.326530612244888,11.102040816326525 16.326530612244888,11.265306122448973 16.326530612244888,11.3469387755102 16.326530612244888,11.265306122448973 16.244897959183668,11.183673469387752 15.999999999999993,11.020408163265307 15.836734693877553,10.530612244897958 15.673469387755098,10.204081632653054 15.591836734693878,9.87755102040816 15.510204081632644,9.632653061224485 15.510204081632644,9.30612244897959 15.428571428571423,8.897959183673464 15.428571428571423,8.489795918367342 15.428571428571423,8.326530612244895 15.428571428571423,8.163265306122444 15.428571428571423,8.08163265306122 15.346938775510203,8.08163265306122 15.346938775510203,7.9999999999999964 15.346938775510203,7.918367346938773 15.346938775510203,7.9999999999999964 15.183673469387749,8.408163265306118 14.857142857142854,8.979591836734688 14.530612244897952,9.959183673469386 14.04081632653061,10.938775510204078 13.877551020408163,11.591836734693874 13.714285714285708,11.999999999999995 13.714285714285708,12.081632653061218 13.795918367346937,11.591836734693874 13.959183673469383,10.938775510204078 14.204081632653057,10.285714285714281 14.367346938775505,9.551020408163264 14.530612244897952,9.061224489795915 14.61224489795918,8.653061224489793 14.693877551020407,8.326530612244895 14.693877551020407,8.163265306122444 14.693877551020407,8.08163265306122 14.693877551020407,7.9999999999999964 14.693877551020407,7.673469387755098 14.693877551020407,7.510204081632647 14.693877551020407,7.4285714285714235 14.693877551020407,7.510204081632647 14.530612244897952,7.918367346938773 14.285714285714286,8.571428571428566 13.959183673469383,9.30612244897959 13.632653061224488,10.040816326530607 13.387755102040813,10.77551020408163 13.224489795918364,11.3469387755102 13.142857142857139,11.591836734693874 13.142857142857139,11.673469387755095 13.224489795918364,11.673469387755095 13.46938775510204,11.510204081632645 13.959183673469383,11.183673469387752 14.448979591836732,11.020408163265307 14.61224489795918,10.85714285714285 14.775510204081629,10.77551020408163 15.020408163265309,10.693877551020403 15.265306122448967,10.530612244897958 15.591836734693878,10.367346938775508 15.755102040816316,10.204081632653054 15.836734693877553,10.122448979591834 15.918367346938773,10.122448979591834 15.918367346938773,10.040816326530607 15.999999999999993,9.959183673469386 16.081632653061227,9.959183673469386 15.999999999999993,9.959183673469386 15.918367346938773,10.040816326530607 15.510204081632644,10.367346938775508 15.102040816326529,10.77551020408163 14.775510204081629,11.265306122448973 14.61224489795918,11.673469387755095 14.448979591836732,11.91836734693877 14.367346938775505,12.081632653061218 14.693877551020407,11.673469387755095 15.020408163265309,11.183673469387752 15.346938775510203,10.693877551020403 15.591836734693878,10.122448979591834 15.836734693877553,9.795918367346932 15.918367346938773,9.714285714285712 15.918367346938773,9.795918367346932 15.918367346938773,9.87755102040816 15.918367346938773,10.204081632653054 15.755102040816316,10.77551020408163 15.591836734693878,11.265306122448973 15.510204081632644,11.673469387755095 15.428571428571423,11.755102040816322 15.428571428571423,11.91836734693877 15.428571428571423,11.836734693877549 15.428571428571423,11.755102040816322 15.428571428571423,11.673469387755095 15.428571428571423,11.510204081632645 15.428571428571423,11.3469387755102 15.346938775510203,11.102040816326525 15.346938775510203,10.85714285714285 15.265306122448967,10.77551020408163 15.265306122448967,10.693877551020403 15.265306122448967,10.612244897959176 15.183673469387749,10.367346938775508 15.102040816326529,10.122448979591834 15.102040816326529,9.87755102040816 15.102040816326529,9.714285714285712 15.102040816326529,9.632653061224485 15.020408163265309,9.632653061224485 15.020408163265309,9.714285714285712 14.857142857142854,9.959183673469386 14.693877551020407,10.530612244897958 14.530612244897952,11.020408163265307 14.448979591836732,11.428571428571427 14.448979591836732,11.91836734693877 14.448979591836732,12.244897959183671 14.448979591836732,12.489795918367344 14.448979591836732,12.653061224489793 14.448979591836732,12.734693877551013 14.530612244897952,12.734693877551013 14.61224489795918,12.653061224489793 14.775510204081629,12.408163265306118 15.020408163265309,12.081632653061218 15.265306122448967,11.673469387755095 15.346938775510203,11.3469387755102 15.428571428571423,11.183673469387752 15.510204081632644,11.102040816326525 15.510204081632644,11.183673469387752 15.428571428571423,11.183673469387752 15.265306122448967,11.3469387755102 15.102040816326529,11.673469387755095 14.938775510204074,11.91836734693877 14.775510204081629,11.999999999999995 14.693877551020407,12.244897959183671 14.61224489795918,12.408163265306118 14.448979591836732,12.571428571428568 14.367346938775505,12.734693877551013 14.285714285714286,13.061224489795917 14.204081632653057,13.224489795918362 14.12244897959183,13.469387755102035 14.12244897959183,13.632653061224485 14.04081632653061,13.87755102040816 14.04081632653061,14.122448979591834 13.959183673469383,14.367346938775508 13.959183673469383,14.612244897959176 13.959183673469383,14.85714285714285 13.959183673469383,15.020408163265296 13.959183673469383,15.265306122448973 13.959183673469383,15.3469387755102 13.959183673469383,15.428571428571427 13.959183673469383,15.510204081632645 13.959183673469383,15.673469387755095 13.959183673469383,15.755102040816322 13.959183673469383,15.836734693877549 13.959183673469383,15.91836734693877 13.959183673469383,16.081632653061217 13.959183673469383,16.32653061224489 13.959183673469383,16.653061224489793 13.959183673469383,17.061224489795915 13.959183673469383,17.38775510204081 13.959183673469383,17.551020408163257 13.959183673469383,17.795918367346932 13.959183673469383,18.040816326530607 13.959183673469383,18.122448979591834 13.959183673469383,18.28571428571428 13.877551020408163,18.28571428571428 13.877551020408163,18.36734693877551 13.795918367346937,18.36734693877551 13.632653061224488,18.693877551020403 13.46938775510204,18.938775510204078 13.387755102040813,19.102040816326525 13.306122448979588,19.102040816326525 13.306122448979588,19.183673469387752 13.224489795918364,19.183673469387752 13.142857142857139,19.183673469387752 13.061224489795912,19.183673469387752 12.979591836734691,19.183673469387752 12.897959183673464,19.183673469387752 12.816326530612244,19.183673469387752 12.734693877551015,19.183673469387752 12.65306122448979,19.183673469387752 12.57142857142857,19.102040816326525 12.489795918367342,19.020408163265298 12.408163265306122,18.938775510204078 12.326530612244895,18.85714285714285 12.244897959183666,18.693877551020403 12.08163265306122,18.530612244897956 12.08163265306122,18.44897959183673 11.999999999999993,18.36734693877551 11.999999999999993,18.28571428571428 11.999999999999993,18.204081632653054 11.918367346938773,18.122448979591834 11.918367346938773,18.040816326530607 11.836734693877546,18.040816326530607 11.836734693877546,17.95918367346938 11.836734693877546,17.87755102040816 11.836734693877546,17.795918367346932 11.836734693877546,17.71428571428571 11.836734693877546,17.551020408163257 11.918367346938773,17.38775510204081 11.999999999999993,17.224489795918362 12.163265306122447,17.061224489795915 12.326530612244895,16.81632653061224 12.57142857142857,16.571428571428566 12.734693877551015,16.48979591836734 12.816326530612244,16.48979591836734 12.816326530612244,16.571428571428566 12.816326530612244,16.653061224489793 12.816326530612244,16.897959183673468 12.816326530612244,17.142857142857135 12.816326530612244,17.38775510204081 12.816326530612244,17.551020408163257 12.816326530612244,17.632653061224485 12.816326530612244,17.71428571428571 12.816326530612244,17.795918367346932 12.816326530612244,17.87755102040816 12.816326530612244,17.95918367346938 12.816326530612244,18.040816326530607 12.816326530612244,18.122448979591834 12.816326530612244,18.204081632653054 12.816326530612244,18.28571428571428 12.816326530612244,18.36734693877551 12.816326530612244,18.44897959183673 12.816326530612244,18.530612244897956 12.897959183673464,18.530612244897956 12.897959183673464,18.44897959183673 13.142857142857139,18.28571428571428 13.306122448979588,18.040816326530607 13.55102040816326,17.87755102040816 13.714285714285708,17.71428571428571 13.795918367346937,17.469387755102037 13.877551020408163,17.224489795918362 13.959183673469383,17.061224489795915 14.04081632653061,16.734693877551013 14.12244897959183,16.571428571428566 14.12244897959183,16.653061224489793 14.04081632653061,16.734693877551013 13.795918367346937,16.979591836734688 13.632653061224488,17.30612244897959 13.46938775510204,17.469387755102037 13.306122448979588,17.71428571428571 13.224489795918364,17.95918367346938 13.224489795918364,18.040816326530607 13.224489795918364,17.95918367346938 13.224489795918364,17.71428571428571 13.224489795918364,17.224489795918362 13.224489795918364,16.653061224489793 13.224489795918364,16.163265306122444 13.224489795918364,15.673469387755095 13.224489795918364,15.265306122448973 13.224489795918364,14.938775510204078 13.224489795918364,14.77551020408163 13.224489795918364,14.530612244897958 13.224489795918364,14.367346938775508 13.224489795918364,14.122448979591834 13.224489795918364,13.959183673469385 13.224489795918364,13.714285714285712 13.224489795918364,13.551020408163259 13.224489795918364,13.38775510204081 13.224489795918364,13.061224489795917 13.224489795918364,12.734693877551013 13.306122448979588,12.408163265306118 13.306122448979588,12.163265306122444 13.387755102040813,11.836734693877549 13.46938775510204,11.673469387755095 13.55102040816326,11.428571428571427 13.55102040816326,11.3469387755102 13.55102040816326,11.265306122448973 13.632653061224488,11.183673469387752 13.632653061224488,11.102040816326525 13.714285714285708,11.102040816326525 13.714285714285708,11.183673469387752 13.714285714285708,11.265306122448973 13.877551020408163,11.510204081632645 13.877551020408163,11.91836734693877 13.877551020408163,12.326530612244891 13.877551020408163,12.979591836734686 13.795918367346937,13.551020408163259 13.795918367346937,13.87755102040816 13.714285714285708,14.040816326530608 13.714285714285708,13.959183673469385 13.714285714285708,13.795918367346932 13.714285714285708,13.38775510204081 13.714285714285708,12.734693877551013 13.877551020408163,12.081632653061218 13.959183673469383,11.510204081632645 14.04081632653061,10.938775510204078 14.12244897959183,10.612244897959176 14.12244897959183,10.285714285714281 14.12244897959183,10.040816326530607 14.12244897959183,9.959183673469386 14.12244897959183,9.87755102040816 14.12244897959183,9.714285714285712 14.12244897959183,9.469387755102037 14.12244897959183,9.30612244897959 14.12244897959183,8.979591836734688 14.12244897959183,8.734693877551017 14.12244897959183,8.408163265306118 14.12244897959183,8.08163265306122 14.12244897959183,7.918367346938773 14.12244897959183,7.755102040816322 14.12244897959183,7.8367346938775455 14.04081632653061,7.918367346938773 13.877551020408163,8.326530612244895 13.632653061224488,8.979591836734688 13.46938775510204,9.632653061224485 13.306122448979588,10.448979591836729 13.061224489795912,11.183673469387752 12.979591836734691,11.91836734693877 12.897959183673464,12.326530612244891 12.897959183673464,12.571428571428568 12.816326530612244,12.489795918367344 12.734693877551015,12.163265306122444 12.734693877551015,11.673469387755095 12.65306122448979,11.102040816326525 12.65306122448979,10.367346938775508 12.65306122448979,9.632653061224485 12.57142857142857,8.979591836734688 12.57142857142857,8.653061224489793 12.57142857142857,8.489795918367342 12.57142857142857,8.571428571428566 12.57142857142857,8.81632653061224 12.489795918367342,9.30612244897959 12.489795918367342,9.959183673469386 12.489795918367342,10.612244897959176 12.489795918367342,11.102040816326525 12.57142857142857,11.428571428571427 12.57142857142857,11.591836734693874 12.57142857142857,11.510204081632645 12.57142857142857,11.3469387755102 12.57142857142857,10.85714285714285 12.65306122448979,10.122448979591834 12.816326530612244,9.38775510204081 12.816326530612244,8.734693877551017 12.734693877551015,8.326530612244895 12.734693877551015,8.08163265306122 12.65306122448979,7.9999999999999964 12.65306122448979,7.918367346938773 12.65306122448979,7.8367346938775455 12.65306122448979,7.673469387755098 12.57142857142857,7.4285714285714235 12.57142857142857,7.183673469387752 12.489795918367342,7.102040816326525 12.489795918367342,7.0204081632653015 12.489795918367342,6.938775510204078 12.408163265306122,6.938775510204078 12.408163265306122,7.0204081632653015 12.408163265306122,7.102040816326525 12.244897959183666,7.4285714285714235 12.08163265306122,7.9999999999999964 11.918367346938773,8.653061224489793 11.673469387755098,9.469387755102037 11.673469387755098,10.122448979591834 11.673469387755098,10.612244897959176 11.673469387755098,10.77551020408163 11.918367346938773,10.693877551020403 12.163265306122447,10.448979591836729 12.326530612244895,10.040816326530607 12.57142857142857,9.551020408163264 12.816326530612244,9.142857142857135 12.897959183673464,8.734693877551017 12.897959183673464,8.244897959183671 12.897959183673464,7.755102040816322 12.897959183673464,7.4285714285714235 12.897959183673464,7.265306122448976 12.897959183673464,7.183673469387752 12.897959183673464,7.102040816326525 12.897959183673464,7.0204081632653015 12.897959183673464,6.938775510204078 12.816326530612244,6.938775510204078 12.734693877551015,6.938775510204078 12.57142857142857,7.102040816326525 12.326530612244895,7.673469387755098 11.999999999999993,8.326530612244895 11.59183673469387,8.979591836734688 11.346938775510203,9.469387755102037 11.183673469387749,9.714285714285712 11.102040816326529,9.795918367346932 11.020408163265301,9.795918367346932 11.020408163265301,9.551020408163264 10.938775510204081,9.30612244897959 10.938775510204081,8.81632653061224 10.938775510204081,8.408163265306118 10.938775510204081,7.918367346938773 10.938775510204081,7.510204081632647 10.938775510204081,7.183673469387752 10.938775510204081,6.938775510204078 11.020408163265301,6.857142857142854 11.020408163265301,6.938775510204078 11.102040816326529,7.102040816326525 11.265306122448974,7.591836734693874 11.346938775510203,7.918367346938773 11.51020408163265,8.08163265306122 11.51020408163265,8.244897959183671 11.59183673469387,8.326530612244895 11.673469387755098,8.326530612244895 11.673469387755098,8.163265306122444 11.836734693877546,7.8367346938775455 11.836734693877546,7.510204081632647 11.836734693877546,7.183673469387752 11.836734693877546,6.938775510204078 11.836734693877546,6.775510204081627 11.755102040816327,6.693877551020403 11.755102040816327,6.6122448979591795 11.673469387755098,6.448979591836732 11.59183673469387,6.285714285714281 11.51020408163265,6.122448979591833 11.428571428571423,6.0408163265306065 11.346938775510203,6.0408163265306065 11.346938775510203,5.959183673469383 11.265306122448974,5.877551020408158 11.183673469387749,5.795918367346935 11.102040816326529,5.714285714285712 11.020408163265301,5.632653061224484 11.020408163265301,5.469387755102037 10.938775510204081,5.387755102040814 10.857142857142854,5.2244897959183625 10.857142857142854,5.142857142857139 10.775510204081629,4.979591836734691 10.775510204081629,4.8163265306122405 10.693877551020407,4.734693877551017 10.693877551020407,4.653061224489793 10.693877551020407,4.571428571428566 10.61224489795918,4.571428571428566 10.530612244897952,4.571428571428566 10.448979591836732,4.571428571428566 10.367346938775505,4.653061224489793 10.204081632653057,4.734693877551017 10.04081632653061,4.897959183673464 10.04081632653061,4.979591836734691 9.959183673469383,4.979591836734691 9.959183673469383,5.061224489795915 9.877551020408163,5.061224489795915 9.877551020408163,5.142857142857139 9.795918367346935,5.142857142857139 9.714285714285708,5.2244897959183625 9.714285714285708,5.306122448979586 9.632653061224488,5.306122448979586 9.55102040816326,5.306122448979586 9.387755102040813,5.387755102040814 9.224489795918366,5.551020408163261 8.816326530612244,5.632653061224484 8.65306122448979,5.795918367346935 8.326530612244895,5.877551020408158 8,6.0408163265306065 7.673469387755098,6.122448979591833 7.510204081632651,6.2040816326530575 7.510204081632651,6.285714285714281 7.510204081632651,6.367346938775505 7.510204081632651,6.448979591836732 7.510204081632651,6.530612244897956 7.591836734693871,6.530612244897956 7.918367346938773,6.530612244897956 8.244897959183668,6.530612244897956 8.65306122448979,6.448979591836732 8.897959183673464,6.448979591836732 8.979591836734691,6.367346938775505 9.224489795918366,6.367346938775505 9.46938775510204,6.285714285714281 9.795918367346935,6.122448979591833 9.959183673469383,6.0408163265306065 10.12244897959183,5.959183673469383 10.204081632653057,5.877551020408158 10.204081632653057,5.795918367346935 10.367346938775505,5.795918367346935 10.448979591836732,5.714285714285712 10.530612244897952,5.714285714285712 10.530612244897952,5.632653061224484 10.61224489795918,5.632653061224484 10.693877551020407,5.632653061224484 10.857142857142854,5.632653061224484 10.938775510204081,5.632653061224484 10.938775510204081,5.714285714285712 10.857142857142854,5.714285714285712 10.775510204081629,5.714285714285712 10.693877551020407,5.877551020408158 10.61224489795918,5.877551020408158 10.448979591836732,5.959183673469383 10.285714285714285,6.122448979591833 10.204081632653057,6.2040816326530575 10.04081632653061,6.367346938775505 9.877551020408163,6.448979591836732 9.795918367346935,6.530612244897956 9.714285714285708,6.6122448979591795 9.632653061224488,6.693877551020403 9.55102040816326,6.775510204081627 9.55102040816326,6.857142857142854 9.387755102040813,6.857142857142854 9.306122448979586,6.938775510204078 9.061224489795912,7.0204081632653015 8.979591836734691,7.183673469387752 8.734693877551017,7.3469387755102 8.57142857142857,7.4285714285714235 8.489795918367342,7.510204081632647 8.408163265306122,7.510204081632647 8.326530612244895,7.591836734693874 8.244897959183668,7.673469387755098 8,7.673469387755098 7.755102040816325,7.755102040816322 7.591836734693871,7.755102040816322 7.510204081632651,7.755102040816322 7.591836734693871,7.755102040816322 7.673469387755098,7.755102040816322 7.8367346938775455,7.755102040816322 8.163265306122447,7.673469387755098 8.408163265306122,7.4285714285714235 8.57142857142857,7.4285714285714235 8.65306122448979,7.3469387755102 8.65306122448979,7.265306122448976 8.734693877551017,7.183673469387752 8.816326530612244,7.0204081632653015 8.897959183673464,6.938775510204078 8.897959183673464,6.857142857142854 8.979591836734691,6.693877551020403 8.979591836734691,6.6122448979591795 8.897959183673464,6.6122448979591795 8.734693877551017,6.6122448979591795 8.57142857142857,6.6122448979591795 8.408163265306122,6.6122448979591795 8.326530612244895,6.693877551020403 8.326530612244895,6.775510204081627 8.326530612244895,6.857142857142854 8.244897959183668,6.857142857142854 8.163265306122447,6.857142857142854 8.163265306122447,6.938775510204078 8.163265306122447,7.0204081632653015 8.244897959183668,7.0204081632653015 8.326530612244895,7.102040816326525 8.734693877551017,7.265306122448976 9.142857142857139,7.3469387755102 9.387755102040813,7.4285714285714235 9.714285714285708,7.510204081632647 10.04081632653061,7.510204081632647 10.285714285714285,7.510204081632647 10.61224489795918,7.510204081632647 10.775510204081629,7.510204081632647 10.857142857142854,7.510204081632647 10.938775510204081,7.510204081632647 11.020408163265301,7.510204081632647 11.102040816326529,7.510204081632647 11.183673469387749,7.4285714285714235 11.183673469387749,7.3469387755102 11.183673469387749,7.265306122448976 11.183673469387749,7.0204081632653015 11.020408163265301,6.6122448979591795 10.775510204081629,6.2040816326530575 10.61224489795918,5.959183673469383 10.530612244897952,5.795918367346935 10.448979591836732,5.795918367346935 10.367346938775505,5.795918367346935 10.285714285714285,5.795918367346935 10.204081632653057,5.877551020408158 10.12244897959183,5.877551020408158 9.959183673469383,5.959183673469383 9.795918367346935,5.959183673469383 9.55102040816326,6.2040816326530575 9.224489795918366,6.448979591836732 8.897959183673464,6.775510204081627 8.65306122448979,7.102040816326525 8.489795918367342,7.3469387755102 8.326530612244895,7.591836734693874 8.326530612244895,7.673469387755098 8.408163265306122,7.673469387755098 8.489795918367342,7.673469387755098 8.816326530612244,7.673469387755098 9.224489795918366,7.673469387755098 9.632653061224488,7.510204081632647 10.12244897959183,7.3469387755102 10.448979591836732,7.102040816326525 10.693877551020407,6.938775510204078 10.857142857142854,6.775510204081627 10.938775510204081,6.693877551020403 11.020408163265301,6.6122448979591795 11.102040816326529,6.6122448979591795 11.183673469387749,6.6122448979591795 11.102040816326529,6.6122448979591795 11.020408163265301,6.6122448979591795 10.857142857142854,6.6122448979591795 10.530612244897952,6.693877551020403 10.04081632653061,6.693877551020403 9.55102040816326,6.693877551020403 9.142857142857139,6.693877551020403 8.816326530612244,6.693877551020403 8.57142857142857,6.693877551020403 8.326530612244895,6.693877551020403 8.08163265306122,6.693877551020403 7.8367346938775455,6.693877551020403 7.673469387755098,6.693877551020403 7.510204081632651,6.693877551020403 7.346938775510203,6.6122448979591795 7.183673469387749,6.530612244897956 7.0204081632653015,6.448979591836732 6.938775510204081,6.367346938775505 6.857142857142854,6.367346938775505 6.693877551020407,6.285714285714281 6.6122448979591795,6.2040816326530575 6.448979591836732,6.122448979591833 6.367346938775505,6.0408163265306065 6.285714285714285,5.959183673469383 6.12244897959183,5.795918367346935 5.959183673469383,5.714285714285712 5.877551020408164,5.551020408163261 5.714285714285708,5.469387755102037 5.632653061224487,5.387755102040814 5.632653061224487,5.306122448979586 5.551020408163261,5.306122448979586 5.551020408163261,5.2244897959183625 5.387755102040814,5.142857142857139 5.306122448979586,5.061224489795915 5.224489795918366,5.061224489795915 5.142857142857139,5.061224489795915 5.061224489795919,5.061224489795915 4.979591836734691,5.061224489795915 4.816326530612244,5.061224489795915 4.6530612244897895,5.061224489795915 4.571428571428569,5.061224489795915 4.489795918367342,5.061224489795915 4.326530612244895,5.061224489795915 4.2448979591836675,5.061224489795915 4.163265306122447,5.061224489795915 4.08163265306122,5.061224489795915 4,5.061224489795915 4,5.142857142857139 3.9183673469387728,5.2244897959183625 3.836734693877545,5.469387755102037 3.7551020408163254,5.632653061224484 3.673469387755098,5.877551020408158 3.673469387755098,5.959183673469383 3.673469387755098,6.122448979591833 3.673469387755098,6.285714285714281 3.673469387755098,6.367346938775505 3.673469387755098,6.448979591836732 3.7551020408163254,6.530612244897956 3.7551020408163254,6.6122448979591795 3.836734693877545,6.6122448979591795 3.9183673469387728,6.6122448979591795 4.08163265306122,6.6122448979591795 4.2448979591836675,6.6122448979591795 4.571428571428569,6.6122448979591795 4.816326530612244,6.6122448979591795 4.979591836734691,6.448979591836732 5.142857142857139,6.367346938775505 5.224489795918366,6.285714285714281 5.387755102040814,6.122448979591833 5.551020408163261,6.0408163265306065 5.632653061224487,5.795918367346935 5.795918367346935,5.632653061224484 5.877551020408164,5.469387755102037 5.959183673469383,5.306122448979586 6.04081632653061,5.142857142857139 5.959183673469383,5.142857142857139 5.877551020408164,5.142857142857139 5.551020408163261,5.2244897959183625 5.306122448979586,5.306122448979586 5.061224489795919,5.387755102040814 4.897959183673464,5.551020408163261 4.6530612244897895,5.632653061224484 4.571428571428569,5.714285714285712 4.489795918367342,5.714285714285712 4.489795918367342,5.795918367346935 4.408163265306122,5.877551020408158 4.326530612244895,5.877551020408158 4.326530612244895,5.959183673469383 4.2448979591836675,5.959183673469383 4.163265306122447,5.959183673469383 4.163265306122447,6.0408163265306065 4.08163265306122,6.0408163265306065 4,6.0408163265306065 4,6.122448979591833 4,6.2040816326530575 4,6.285714285714281 4,6.367346938775505 4,6.6122448979591795 4,6.693877551020403 4,6.938775510204078 4.08163265306122,7.0204081632653015 4.163265306122447,7.102040816326525 4.326530612244895,7.102040816326525 4.408163265306122,7.102040816326525 4.489795918367342,7.102040816326525 4.571428571428569,7.102040816326525 4.816326530612244,7.102040816326525 5.061224489795919,7.0204081632653015 5.224489795918366,6.938775510204078 5.387755102040814,6.857142857142854 5.551020408163261,6.693877551020403 5.795918367346935,6.530612244897956 6.04081632653061,6.367346938775505 6.285714285714285,6.122448979591833 6.448979591836732,6.0408163265306065 6.448979591836732,5.959183673469383 6.530612244897959,5.959183673469383 6.530612244897959,5.877551020408158 6.530612244897959,5.959183673469383 6.448979591836732,5.959183673469383 6.285714285714285,6.122448979591833 6.04081632653061,6.285714285714281 5.795918367346935,6.367346938775505 5.551020408163261,6.448979591836732 5.306122448979586,6.530612244897956 5.142857142857139,6.6122448979591795 4.979591836734691,6.693877551020403 4.897959183673464,6.693877551020403 4.816326530612244,6.775510204081627 4.6530612244897895,6.857142857142854 4.6530612244897895,6.938775510204078 4.571428571428569,6.938775510204078 4.489795918367342,6.938775510204078 4.489795918367342,7.0204081632653015 4.408163265306122,7.0204081632653015 4.326530612244895,7.102040816326525 4.2448979591836675,7.183673469387752 4.163265306122447,7.265306122448976 4,7.3469387755102 3.9183673469387728,7.510204081632647 3.836734693877545,7.591836734693874 3.673469387755098,7.673469387755098 3.673469387755098,7.755102040816322 3.591836734693878,7.755102040816322 3.591836734693878,7.8367346938775455 3.673469387755098,7.8367346938775455 3.7551020408163254,7.8367346938775455 4,7.8367346938775455 4.2448979591836675,7.8367346938775455 4.489795918367342,7.8367346938775455 4.571428571428569,7.8367346938775455 4.734693877551017,7.8367346938775455 4.816326530612244,7.8367346938775455 4.897959183673464,7.8367346938775455 5.061224489795919,7.755102040816322 5.224489795918366,7.755102040816322 5.387755102040814,7.755102040816322 5.551020408163261,7.673469387755098 5.795918367346935,7.510204081632647 6.04081632653061,7.4285714285714235 6.2040816326530575,7.4285714285714235 6.448979591836732,7.3469387755102 6.530612244897959,7.3469387755102 6.775510204081627,7.183673469387752 6.857142857142854,7.183673469387752 6.775510204081627,7.183673469387752 6.693877551020407,7.265306122448976 6.448979591836732,7.3469387755102 6.285714285714285,7.4285714285714235 6.04081632653061,7.510204081632647 5.795918367346935,7.673469387755098 5.469387755102041,7.755102040816322 5.142857142857139,7.918367346938773 4.979591836734691,7.9999999999999964 4.897959183673464,8.08163265306122 4.816326530612244,8.08163265306122 4.6530612244897895,8.163265306122444 4.571428571428569,8.244897959183671 4.489795918367342,8.244897959183671 4.408163265306122,8.326530612244895 4.2448979591836675,8.326530612244895 4.08163265306122,8.408163265306118 4,8.408163265306118 3.9183673469387728,8.408163265306118 3.9183673469387728,8.489795918367342 3.836734693877545,8.489795918367342 3.7551020408163254,8.489795918367342 3.7551020408163254,8.571428571428566 3.836734693877545,8.571428571428566 4.163265306122447,8.571428571428566 4.571428571428569,8.571428571428566 5.061224489795919,8.571428571428566 5.306122448979586,8.571428571428566 5.469387755102041,8.571428571428566 5.551020408163261,8.571428571428566 5.632653061224487,8.571428571428566 5.714285714285708,8.571428571428566 5.877551020408164,8.571428571428566 5.959183673469383,8.571428571428566 6.2040816326530575,8.571428571428566 6.2040816326530575,8.489795918367342 6.285714285714285,8.489795918367342 6.448979591836732,8.489795918367342 6.530612244897959,8.408163265306118 6.6122448979591795,8.408163265306118 6.693877551020407,8.408163265306118 6.775510204081627,8.408163265306118 6.775510204081627,8.326530612244895 6.857142857142854,8.326530612244895 6.775510204081627,8.326530612244895 6.6122448979591795,8.408163265306118 6.12244897959183,8.571428571428566 5.632653061224487,8.734693877551017 5.306122448979586,8.81632653061224 5.142857142857139,8.897959183673464 5.061224489795919,8.979591836734688 4.979591836734691,8.979591836734688 4.816326530612244,9.061224489795915 4.6530612244897895,9.061224489795915 4.571428571428569,9.142857142857135 4.571428571428569,9.224489795918362 4.489795918367342,9.224489795918362 4.408163265306122,9.224489795918362 4.2448979591836675,9.224489795918362 4.08163265306122,9.30612244897959 4,9.30612244897959 3.9183673469387728,9.30612244897959 3.836734693877545,9.30612244897959 3.836734693877545,9.38775510204081 3.9183673469387728,9.38775510204081 4.571428571428569,9.38775510204081 4.6530612244897895,9.38775510204081 5.061224489795919,9.38775510204081 5.224489795918366,9.38775510204081 5.387755102040814,9.38775510204081 5.469387755102041,9.38775510204081 5.551020408163261,9.38775510204081 5.632653061224487,9.38775510204081 5.795918367346935,9.38775510204081 5.877551020408164,9.38775510204081 5.959183673469383,9.38775510204081 6.04081632653061,9.38775510204081 6.12244897959183,9.38775510204081 6.2040816326530575,9.38775510204081 6.285714285714285,9.38775510204081 6.367346938775505,9.38775510204081 6.448979591836732,9.38775510204081 6.530612244897959,9.38775510204081 6.6122448979591795,9.38775510204081 6.530612244897959,9.38775510204081 6.448979591836732,9.38775510204081 6.2040816326530575,9.38775510204081 5.795918367346935,9.469387755102037 5.551020408163261,9.632653061224485 5.306122448979586,9.714285714285712 5.061224489795919,9.714285714285712 4.897959183673464,9.714285714285712 4.816326530612244,9.795918367346932 4.6530612244897895,9.795918367346932 4.489795918367342,9.87755102040816 4.2448979591836675,9.959183673469386 4,9.959183673469386 3.9183673469387728,9.959183673469386 3.9183673469387728,10.040816326530607 3.836734693877545,10.040816326530607 3.7551020408163254,10.040816326530607 3.673469387755098,10.040816326530607 3.7551020408163254,10.040816326530607 3.836734693877545,10.040816326530607 4.08163265306122,10.040816326530607 4.489795918367342,10.040816326530607 4.816326530612244,10.040816326530607 5.061224489795919,10.040816326530607 5.224489795918366,10.040816326530607 5.469387755102041,9.959183673469386 5.632653061224487,9.959183673469386 5.877551020408164,9.87755102040816 5.959183673469383,9.87755102040816 6.12244897959183,9.87755102040816 6.2040816326530575,9.87755102040816 6.285714285714285,9.87755102040816 6.2040816326530575,9.87755102040816 6.04081632653061,9.959183673469386 5.795918367346935,10.040816326530607 5.551020408163261,10.122448979591834 5.469387755102041,10.285714285714281 5.306122448979586,10.285714285714281 5.224489795918366,10.285714285714281 5.224489795918366,10.367346938775508 5.061224489795919,10.367346938775508 4.979591836734691,10.367346938775508 4.979591836734691,10.448979591836729 4.897959183673464,10.448979591836729 4.816326530612244,10.448979591836729 4.734693877551017,10.448979591836729 4.6530612244897895,10.530612244897958 4.571428571428569,10.530612244897958 4.489795918367342,10.612244897959176 4.326530612244895,10.612244897959176 4.2448979591836675,10.693877551020403 4.163265306122447,10.693877551020403 4,10.693877551020403 3.9183673469387728,10.693877551020403 4,10.693877551020403 4.326530612244895,10.693877551020403 4.734693877551017,10.693877551020403 4.979591836734691,10.693877551020403 5.224489795918366,10.693877551020403 5.551020408163261,10.693877551020403 5.795918367346935,10.693877551020403 5.959183673469383,10.693877551020403 6.04081632653061,10.693877551020403 6.12244897959183,10.693877551020403 6.2040816326530575,10.693877551020403 6.285714285714285,10.693877551020403 6.367346938775505,10.693877551020403 6.448979591836732,10.693877551020403 6.367346938775505,10.693877551020403 6.285714285714285,10.693877551020403 6.2040816326530575,10.77551020408163 6.04081632653061,10.77551020408163 5.877551020408164,10.938775510204078 5.795918367346935,10.938775510204078 5.714285714285708,10.938775510204078 5.632653061224487,11.020408163265307 5.551020408163261,11.020408163265307 5.469387755102041,11.102040816326525 5.306122448979586,11.183673469387752 5.224489795918366,11.265306122448973 5.142857142857139,11.265306122448973 5.061224489795919,11.265306122448973 4.979591836734691,11.3469387755102 4.897959183673464,11.3469387755102 4.816326530612244,11.3469387755102 4.734693877551017,11.3469387755102 4.6530612244897895,11.428571428571427 4.571428571428569,11.428571428571427 4.408163265306122,11.510204081632645 4.2448979591836675,11.591836734693874 4.08163265306122,11.591836734693874 4,11.591836734693874 3.9183673469387728,11.591836734693874 3.836734693877545,11.591836734693874 3.9183673469387728,11.591836734693874 4,11.591836734693874 4.2448979591836675,11.591836734693874 4.408163265306122,11.510204081632645 4.489795918367342,11.510204081632645 4.734693877551017,11.510204081632645 4.897959183673464,11.428571428571427 5.224489795918366,11.3469387755102 5.469387755102041,11.3469387755102 5.632653061224487,11.265306122448973 5.795918367346935,11.265306122448973 5.877551020408164,11.265306122448973 6.12244897959183,11.183673469387752 6.285714285714285,11.183673469387752 6.448979591836732,11.183673469387752 6.367346938775505,11.183673469387752 6.285714285714285,11.183673469387752 6.2040816326530575,11.183673469387752 5.959183673469383,11.265306122448973 5.714285714285708,11.428571428571427 5.551020408163261,11.510204081632645 5.387755102040814,11.591836734693874 5.224489795918366,11.755102040816322 4.979591836734691,11.836734693877549 4.897959183673464,11.836734693877549 4.816326530612244,11.91836734693877 4.734693877551017,11.91836734693877 4.6530612244897895,11.91836734693877 4.6530612244897895,11.999999999999995 4.734693877551017,11.999999999999995 4.816326530612244,11.999999999999995 5.061224489795919,11.999999999999995 5.224489795918366,11.999999999999995 5.469387755102041,11.999999999999995 5.551020408163261,11.91836734693877 5.632653061224487,11.91836734693877 5.795918367346935,11.836734693877549 5.877551020408164,11.836734693877549 5.959183673469383,11.836734693877549 6.04081632653061,11.836734693877549 6.04081632653061,11.755102040816322 6.12244897959183,11.755102040816322 6.2040816326530575,11.755102040816322 6.285714285714285,11.673469387755095 6.448979591836732,11.673469387755095 6.6122448979591795,11.510204081632645 6.775510204081627,11.428571428571427 6.857142857142854,11.3469387755102 7.183673469387749,11.102040816326525 7.510204081632651,10.85714285714285 7.918367346938773,10.448979591836729 8.244897959183668,10.122448979591834 8.489795918367342,9.795918367346932 8.65306122448979,9.469387755102037 8.816326530612244,9.061224489795915 8.979591836734691,8.653061224489793 9.142857142857139,8.408163265306118 9.224489795918366,8.163265306122444 9.306122448979586,7.9999999999999964 9.306122448979586,7.8367346938775455 9.387755102040813,7.8367346938775455 9.46938775510204,7.8367346938775455 9.387755102040813,7.8367346938775455 9.306122448979586,7.8367346938775455 9.224489795918366,7.8367346938775455 8.979591836734691,7.918367346938773 8.489795918367342,8.08163265306122 8.163265306122447,8.244897959183671 8.08163265306122,8.326530612244895 8,8.326530612244895 7.918367346938773,8.408163265306118 7.673469387755098,8.571428571428566 7.346938775510203,8.81632653061224 7.0204081632653015,8.979591836734688 6.938775510204081,9.061224489795915 6.857142857142854,9.061224489795915 6.938775510204081,9.061224489795915 7.102040816326529,9.061224489795915 7.4285714285714235,8.979591836734688 7.918367346938773,8.81632653061224 8.408163265306122,8.734693877551017 8.897959183673464,8.571428571428566 9.224489795918366,8.489795918367342 9.46938775510204,8.408163265306118 9.55102040816326,8.326530612244895 9.714285714285708,8.163265306122444 9.959183673469383,8.08163265306122 10.04081632653061,7.9999999999999964 10.204081632653057,7.9999999999999964 10.285714285714285,7.8367346938775455 10.448979591836732,7.8367346938775455 10.448979591836732,7.755102040816322 10.530612244897952,7.755102040816322 10.61224489795918,7.755102040816322 10.530612244897952,7.755102040816322 10.367346938775505,7.918367346938773 9.877551020408163,8.244897959183671 9.142857142857139,8.571428571428566 8.489795918367342,8.897959183673464 8.08163265306122,9.061224489795915 7.8367346938775455,9.224489795918362 7.673469387755098,9.30612244897959 7.4285714285714235,9.38775510204081 7.346938775510203,9.469387755102037 7.265306122448976,9.469387755102037 7.183673469387749,9.551020408163264 7.265306122448976,9.551020408163264 7.755102040816325,9.551020408163264 8.163265306122447,9.551020408163264 8.489795918367342,9.551020408163264 8.816326530612244,9.551020408163264 9.142857142857139,9.551020408163264 9.55102040816326,9.469387755102037 9.877551020408163,9.38775510204081 10.204081632653057,9.30612244897959 10.448979591836732,9.30612244897959 10.693877551020407,9.142857142857135 10.857142857142854,9.142857142857135 10.938775510204081,9.061224489795915 11.020408163265301,9.061224489795915 11.102040816326529,9.061224489795915 11.183673469387749,9.061224489795915 11.183673469387749,8.979591836734688 11.265306122448974,8.979591836734688 11.346938775510203,8.979591836734688 11.265306122448974,8.979591836734688 11.183673469387749,8.979591836734688 10.857142857142854,8.979591836734688 10.448979591836732,8.979591836734688 10.04081632653061,8.979591836734688 9.632653061224488,8.979591836734688 9.306122448979586,8.979591836734688 9.061224489795912,8.979591836734688 8.897959183673464,8.979591836734688 8.734693877551017,8.979591836734688 8.734693877551017,9.061224489795915 8.816326530612244,9.061224489795915 8.979591836734691,9.061224489795915 9.306122448979586,8.979591836734688 9.714285714285708,8.81632653061224 10.12244897959183,8.653061224489793 10.530612244897952,8.489795918367342 10.857142857142854,8.408163265306118 11.020408163265301,8.326530612244895 11.102040816326529,8.326530612244895 11.183673469387749,8.326530612244895 11.265306122448974,8.244897959183671 11.265306122448974,8.326530612244895 11.183673469387749,8.326530612244895 10.693877551020407,8.734693877551017 9.959183673469383,9.142857142857135 9.224489795918366,9.551020408163264 8.65306122448979,9.959183673469386 8.244897959183668,10.285714285714281 8,10.530612244897958 7.8367346938775455,10.693877551020403 7.673469387755098,10.77551020408163 7.510204081632651,10.85714285714285 7.4285714285714235,10.938775510204078 7.346938775510203,10.938775510204078 7.183673469387749,11.102040816326525 7.0204081632653015,11.102040816326525 6.938775510204081,11.265306122448973 7.0204081632653015,11.183673469387752 7.183673469387749,11.183673469387752 7.510204081632651,11.102040816326525 7.755102040816325,11.020408163265307 8,10.85714285714285 8.244897959183668,10.85714285714285 8.408163265306122,10.77551020408163 8.57142857142857,10.693877551020403 8.816326530612244,10.693877551020403 9.061224489795912,10.530612244897958 9.387755102040813,10.448979591836729 9.632653061224488,10.367346938775508 9.959183673469383,10.204081632653054 10.204081632653057,10.040816326530607 10.285714285714285,10.040816326530607 10.367346938775505,9.959183673469386 10.530612244897952,9.959183673469386 10.61224489795918,9.87755102040816 10.693877551020407,9.795918367346932 10.857142857142854,9.714285714285712 11.020408163265301,9.632653061224485 11.183673469387749,9.632653061224485 11.265306122448974,9.551020408163264 11.346938775510203,9.551020408163264 11.428571428571423,9.469387755102037 11.59183673469387,9.469387755102037 11.673469387755098,9.469387755102037 11.673469387755098,9.551020408163264 11.428571428571423,9.795918367346932 10.938775510204081,10.122448979591834 10.367346938775505,10.448979591836729 9.959183673469383,10.77551020408163 9.714285714285708,10.85714285714285 9.714285714285708,10.938775510204078 9.632653061224488,10.938775510204078 9.46938775510204,11.020408163265307 9.224489795918366,11.102040816326525 8.979591836734691,11.183673469387752 8.816326530612244,11.265306122448973 8.65306122448979,11.265306122448973 8.408163265306122,11.3469387755102 8.244897959183668,11.428571428571427 8.08163265306122,11.428571428571427 7.918367346938773,11.510204081632645 7.8367346938775455,11.510204081632645 7.755102040816325,11.591836734693874 7.673469387755098,11.591836734693874 7.591836734693871,11.591836734693874 7.510204081632651,11.591836734693874 7.510204081632651,11.673469387755095 7.591836734693871,11.673469387755095 7.755102040816325,11.673469387755095 8,11.591836734693874 8.244897959183668,11.510204081632645 8.489795918367342,11.428571428571427 8.65306122448979,11.428571428571427 8.897959183673464,11.3469387755102 9.061224489795912,11.3469387755102 9.224489795918366,11.265306122448973 9.306122448979586,11.183673469387752 9.46938775510204,11.183673469387752 9.55102040816326,11.102040816326525 9.714285714285708,11.102040816326525 9.959183673469383,11.020408163265307 10.04081632653061,11.020408163265307 10.285714285714285,10.85714285714285 10.530612244897952,10.77551020408163 10.775510204081629,10.693877551020403 11.020408163265301,10.448979591836729 11.346938775510203,10.285714285714281 11.755102040816327,10.122448979591834 11.999999999999993,9.959183673469386 12.08163265306122,9.795918367346932 12.08163265306122,9.714285714285712 12.244897959183666,9.714285714285712 12.244897959183666,9.795918367346932 12.244897959183666,9.87755102040816 12.163265306122447,10.122448979591834 11.999999999999993,10.448979591836729 11.836734693877546,10.693877551020403 11.673469387755098,11.020408163265307 11.51020408163265,11.102040816326525 11.51020408163265,11.183673469387752 11.51020408163265,11.265306122448973 11.428571428571423,11.265306122448973 11.428571428571423,11.3469387755102 11.428571428571423,11.428571428571427 11.428571428571423,11.510204081632645 11.428571428571423,11.591836734693874 11.428571428571423,11.673469387755095 11.59183673469387,11.755102040816322 11.59183673469387,11.91836734693877 11.673469387755098,12.081632653061218 11.755102040816327,12.163265306122444 11.755102040816327,12.244897959183671 11.755102040816327,12.326530612244891 11.836734693877546,12.408163265306118 11.918367346938773,12.408163265306118 11.918367346938773,12.489795918367344 11.999999999999993,12.489795918367344 11.999999999999993,12.571428571428568 12.08163265306122,12.653061224489793 12.244897959183666,12.734693877551013 12.326530612244895,12.81632653061224 12.408163265306122,12.897959183673468 12.408163265306122,12.979591836734686 12.489795918367342,12.979591836734686 12.57142857142857,12.979591836734686 12.57142857142857,13.061224489795917 12.57142857142857,13.142857142857135 12.57142857142857,13.224489795918362 12.65306122448979,13.30612244897959 12.65306122448979,13.469387755102035 12.65306122448979,13.632653061224485 12.65306122448979,13.795918367346932 12.65306122448979,14.040816326530608 12.65306122448979,14.122448979591834 12.65306122448979,14.204081632653054 12.65306122448979,14.285714285714281 12.65306122448979,14.367346938775508 12.65306122448979,14.530612244897958 12.65306122448979,14.693877551020403 12.65306122448979,14.938775510204078 12.65306122448979,15.020408163265296 12.65306122448979,15.102040816326525 12.65306122448979,15.265306122448973 12.57142857142857,15.265306122448973 12.57142857142857,15.3469387755102 12.57142857142857,15.428571428571427 12.489795918367342,15.428571428571427 12.489795918367342,15.591836734693874 12.408163265306122,15.755102040816322 12.326530612244895,15.836734693877549 12.326530612244895,15.999999999999995 12.244897959183666,16.081632653061217 12.163265306122447,16.081632653061217 12.163265306122447,16.163265306122444 12.163265306122447,16.24489795918367 12.163265306122447,16.32653061224489 12.163265306122447,16.24489795918367 12.163265306122447,16.081632653061217 12.08163265306122,15.836734693877549 12.08163265306122,15.591836734693874 12.08163265306122,15.3469387755102 12.08163265306122,15.102040816326525 12.08163265306122,14.85714285714285 12.08163265306122,14.693877551020403 12.08163265306122,14.448979591836729 12.08163265306122,14.285714285714281 12.08163265306122,14.122448979591834 12.08163265306122,13.87755102040816 12.08163265306122,13.714285714285712 12.08163265306122,13.551020408163259 12.08163265306122,13.30612244897959 12.08163265306122,13.142857142857135 12.08163265306122,12.979591836734686 12.08163265306122,12.81632653061224 12.08163265306122,12.734693877551013 12.08163265306122,12.653061224489793 12.08163265306122,12.571428571428568 12.08163265306122,12.489795918367344 12.163265306122447,12.326530612244891 12.163265306122447,12.163265306122444 12.163265306122447,12.081632653061218 12.244897959183666,11.91836734693877 12.244897959183666,11.755102040816322 12.244897959183666,11.428571428571427 12.326530612244895,11.183673469387752 12.326530612244895,11.020408163265307 12.326530612244895,11.102040816326525 12.326530612244895,11.265306122448973 12.326530612244895,11.591836734693874 12.326530612244895,12.081632653061218 12.326530612244895,12.734693877551013 12.163265306122447,13.551020408163259 11.999999999999993,14.285714285714281 11.999999999999993,14.85714285714285 11.999999999999993,15.020408163265296 11.999999999999993,15.102040816326525 11.999999999999993,15.183673469387752 11.999999999999993,15.265306122448973 11.999999999999993,15.510204081632645 11.999999999999993,15.836734693877549 11.999999999999993,16.081632653061217 11.999999999999993,16.40816326530612 11.999999999999993,16.48979591836734 11.999999999999993,16.571428571428566 11.999999999999993,16.653061224489793 11.999999999999993,16.734693877551013 11.999999999999993,16.653061224489793 11.999999999999993,16.571428571428566 11.999999999999993,16.40816326530612 12.08163265306122,16.163265306122444 12.08163265306122,15.91836734693877 12.08163265306122,15.510204081632645 12.163265306122447,15.102040816326525 12.163265306122447,14.612244897959176 12.163265306122447,14.204081632653054 12.163265306122447,13.959183673469385 12.163265306122447,13.795918367346932 12.163265306122447,13.632653061224485 12.08163265306122,13.469387755102035 11.999999999999993,13.224489795918362 11.836734693877546,12.979591836734686 11.755102040816327,12.81632653061224 11.673469387755098,12.734693877551013 11.673469387755098,12.653061224489793 11.59183673469387,12.571428571428568 11.428571428571423,12.489795918367344 11.346938775510203,12.408163265306118 11.346938775510203,12.326530612244891 11.183673469387749,12.244897959183671 11.183673469387749,12.163265306122444 11.102040816326529,12.081632653061218 11.020408163265301,11.999999999999995 10.857142857142854,11.91836734693877 10.775510204081629,11.91836734693877 10.693877551020407,11.836734693877549 10.61224489795918,11.755102040816322 10.530612244897952,11.673469387755095 10.448979591836732,11.673469387755095 10.448979591836732,11.591836734693874 10.367346938775505,11.591836734693874 10.285714285714285,11.591836734693874 10.204081632653057,11.591836734693874 10.12244897959183,11.591836734693874 10.04081632653061,11.591836734693874 9.877551020408163,11.510204081632645 9.795918367346935,11.510204081632645 9.714285714285708,11.510204081632645 9.632653061224488,11.510204081632645 9.46938775510204,11.510204081632645 9.387755102040813,11.510204081632645 9.306122448979586,11.510204081632645 9.306122448979586,11.591836734693874 9.224489795918366,11.591836734693874 9.142857142857139,11.591836734693874 9.061224489795912,11.673469387755095 8.979591836734691,11.755102040816322 8.816326530612244,11.755102040816322 8.816326530612244,11.836734693877549 8.734693877551017,11.836734693877549 8.65306122448979,11.91836734693877 8.57142857142857,11.91836734693877 8.489795918367342,11.91836734693877 8.408163265306122,11.999999999999995 8.326530612244895,12.081632653061218 8.244897959183668,12.081632653061218 8.244897959183668,12.163265306122444 8.163265306122447,12.163265306122444 8.08163265306122,12.163265306122444 8.08163265306122,12.244897959183671 8,12.244897959183671 7.918367346938773,12.244897959183671 8,12.244897959183671 8.08163265306122,12.244897959183671 8.163265306122447,12.244897959183671 8.326530612244895,12.244897959183671 8.408163265306122,12.244897959183671 8.489795918367342,12.244897959183671 8.65306122448979,12.244897959183671 8.734693877551017,12.244897959183671 8.979591836734691,12.244897959183671 9.142857142857139,12.326530612244891 9.306122448979586,12.326530612244891 9.387755102040813,12.408163265306118 9.46938775510204,12.408163265306118 9.55102040816326,12.408163265306118 9.714285714285708,12.408163265306118 9.795918367346935,12.408163265306118 9.877551020408163,12.408163265306118 9.959183673469383,12.489795918367344 10.04081632653061,12.489795918367344 10.12244897959183,12.489795918367344 10.204081632653057,12.489795918367344 10.285714285714285,12.489795918367344 10.367346938775505,12.571428571428568 10.448979591836732,12.571428571428568 10.530612244897952,12.653061224489793 10.61224489795918,12.734693877551013 10.693877551020407,12.734693877551013 10.775510204081629,12.81632653061224 10.938775510204081,12.897959183673468 10.938775510204081,12.979591836734686 11.020408163265301,13.061224489795917 11.020408163265301,13.142857142857135 11.102040816326529,13.142857142857135 11.183673469387749,13.142857142857135 11.183673469387749,13.224489795918362 11.265306122448974,13.30612244897959 11.346938775510203,13.38775510204081 11.428571428571423,13.38775510204081 11.428571428571423,13.469387755102035 11.51020408163265,13.469387755102035 11.51020408163265,13.551020408163259 11.59183673469387,13.551020408163259 11.59183673469387,13.632653061224485 11.59183673469387,13.714285714285712 11.673469387755098,13.795918367346932 11.673469387755098,13.959183673469385 11.673469387755098,14.122448979591834 11.755102040816327,14.204081632653054 11.755102040816327,14.285714285714281 11.755102040816327,14.367346938775508 11.755102040816327,14.448979591836729 11.755102040816327,14.530612244897958 11.836734693877546,14.530612244897958 11.836734693877546,14.612244897959176 11.836734693877546,14.693877551020403 11.836734693877546,14.77551020408163 11.836734693877546,14.85714285714285 11.836734693877546,14.938775510204078 11.755102040816327,14.938775510204078 11.673469387755098,14.938775510204078 11.673469387755098,14.85714285714285 11.428571428571423,14.693877551020403 11.346938775510203,14.612244897959176 11.183673469387749,14.530612244897958 11.183673469387749,14.448979591836729 11.102040816326529,14.448979591836729 11.102040816326529,14.367346938775508 11.020408163265301,14.367346938775508 11.020408163265301,14.285714285714281 10.857142857142854,14.204081632653054 10.857142857142854,14.122448979591834 10.775510204081629,14.122448979591834 10.775510204081629,14.040816326530608 10.693877551020407,13.959183673469385 10.693877551020407,13.87755102040816 10.693877551020407,13.795918367346932 10.61224489795918,13.795918367346932 10.61224489795918,13.714285714285712 10.530612244897952,13.632653061224485 10.530612244897952,13.469387755102035 10.448979591836732,13.38775510204081 10.448979591836732,13.30612244897959 10.367346938775505,13.30612244897959 10.367346938775505,13.224489795918362 10.367346938775505,13.142857142857135 10.285714285714285,13.142857142857135 10.204081632653057,13.142857142857135 10.204081632653057,13.061224489795917 10.12244897959183,12.979591836734686 10.04081632653061,12.979591836734686 9.959183673469383,12.979591836734686 9.877551020408163,12.897959183673468 9.714285714285708,12.897959183673468 9.632653061224488,12.81632653061224 9.46938775510204,12.81632653061224 9.387755102040813,12.81632653061224 9.387755102040813,12.734693877551013 9.306122448979586,12.653061224489793 9.306122448979586,12.571428571428568 9.224489795918366,12.571428571428568 9.224489795918366,12.489795918367344 9.224489795918366,12.408163265306118 9.224489795918366,12.326530612244891 9.224489795918366,12.163265306122444 9.387755102040813,11.91836734693877 9.55102040816326,11.591836734693874 9.714285714285708,11.265306122448973 9.795918367346935,11.102040816326525 9.877551020408163,10.85714285714285 9.959183673469383,10.77551020408163 10.04081632653061,10.693877551020403 10.04081632653061,10.612244897959176 10.204081632653057,10.448979591836729 10.367346938775505,10.204081632653054 10.448979591836732,10.040816326530607 10.61224489795918,9.959183673469386 10.61224489795918,9.87755102040816 10.693877551020407,9.87755102040816 10.775510204081629,9.714285714285712 10.857142857142854,9.632653061224485 10.938775510204081,9.551020408163264 10.938775510204081,9.632653061224485 11.020408163265301,9.714285714285712 11.102040816326529,9.714285714285712 11.346938775510203,9.795918367346932 11.51020408163265,9.795918367346932 11.59183673469387,9.795918367346932 11.673469387755098,9.795918367346932 11.755102040816327,9.87755102040816 11.836734693877546,9.87755102040816 11.918367346938773,9.87755102040816 11.918367346938773,9.959183673469386 11.999999999999993,9.959183673469386 " style="color: rgb(0, 0, 0);"/></g></svg>